<svg width="151" height="53" viewBox="0 0 151 53" fill="none" xmlns="http://www.w3.org/2000/svg">
<g filter="url(#filter0_d_2137_45689)">
<path d="M124.8 6.07127H37.2159C39.6793 7.85121 41.6847 10.1883 43.0677 12.8908C44.4506 15.5933 45.1716 18.5843 45.1716 21.6186C45.1716 24.6528 44.4506 27.6438 43.0677 30.3463C41.6847 33.0488 39.6793 35.3859 37.2159 37.1658H124.8C126.871 37.2041 128.929 36.8302 130.853 36.0661C132.778 35.3019 134.531 34.1629 136.009 32.7154C137.487 31.2679 138.661 29.541 139.463 27.6357C140.264 25.7304 140.677 23.6848 140.677 21.6186C140.677 19.5523 140.264 17.5067 139.463 15.6014C138.661 13.6961 137.487 11.9692 136.009 10.5217C134.531 9.07425 132.778 7.93515 130.853 7.17101C128.929 6.40687 126.871 6.03301 124.8 6.07127Z" fill="url(#paint0_linear_2137_45689)"/>
</g>
<path d="M124.8 6.07129H37.2159C37.5206 6.28993 37.8146 6.5139 38.1033 6.7432H124.8C128.875 6.74367 132.788 8.33656 135.7 11.1805C138.612 14.0244 140.291 17.893 140.378 21.9572C140.378 21.8452 140.378 21.7332 140.378 21.6212C140.379 19.5799 139.976 17.5584 139.194 15.6722C138.411 13.7859 137.264 12.0719 135.817 10.628C134.371 9.18403 132.653 8.03843 130.763 7.25659C128.872 6.47476 126.846 6.07199 124.8 6.07129Z" fill="#B1D9F4"/>
<path d="M140.373 21.2588C140.291 25.3258 138.615 29.199 135.704 32.0474C132.792 34.8957 128.878 36.4921 124.8 36.4941H38.1033C37.8146 36.7287 37.5206 36.9527 37.2159 37.166H124.8C126.847 37.1667 128.874 36.7652 130.765 35.9843C132.656 35.2034 134.375 34.0585 135.822 32.615C137.27 31.1715 138.418 29.4576 139.202 27.5713C139.985 25.685 140.389 23.6632 140.389 21.6214C140.383 21.5041 140.378 21.3921 140.373 21.2588Z" fill="#246CA7"/>
<path d="M124.8 10.2202H41.4018C43.8439 13.5214 45.1615 17.5161 45.1615 21.6187C45.1615 25.7213 43.8439 29.716 41.4018 33.0172H124.8C127.788 32.9527 130.631 31.7235 132.721 29.5929C134.812 27.4623 135.982 24.5998 135.982 21.6187C135.982 18.6376 134.812 15.7751 132.721 13.6445C130.631 11.5139 127.788 10.2847 124.8 10.2202Z" fill="url(#paint1_linear_2137_45689)"/>
<path d="M124.8 9.5271H40.8944C41.0761 9.74574 41.2472 9.96971 41.429 10.199H124.8C127.769 10.2019 130.621 11.3583 132.749 13.4231C134.878 15.4878 136.117 18.2984 136.203 21.2589C136.203 21.1469 136.203 21.0349 136.203 20.9229C136.203 17.9043 135.002 15.0089 132.865 12.8724C130.727 10.7359 127.826 9.53275 124.8 9.5271Z" fill="white"/>
<path d="M136.203 21.2588C136.123 24.223 134.886 27.039 132.757 29.1083C130.628 31.1776 127.773 32.3369 124.8 32.34H41.8997C41.7446 32.5693 41.5842 32.7933 41.4185 33.0172H124.8C127.83 33.0172 130.736 31.8166 132.879 29.6795C135.021 27.5423 136.225 24.6438 136.225 21.6214C136.219 21.5041 136.209 21.3974 136.203 21.2588Z" fill="#BBBCBF"/>
<g filter="url(#filter1_d_2137_45689)">
<path d="M31.9924 35.9492C39.9234 32.6074 43.6369 23.4851 40.2867 15.574C36.9365 7.66285 27.7913 3.95867 19.8603 7.30046C11.9293 10.6423 8.21586 19.7646 11.566 27.6757C14.9162 35.5868 24.0614 39.291 31.9924 35.9492Z" fill="url(#paint2_linear_2137_45689)"/>
</g>
<path d="M30.4974 32.4424C36.485 29.9231 39.2916 23.039 36.766 17.0664C34.2404 11.0937 27.339 8.2942 21.3514 10.8135C15.3637 13.3327 12.5572 20.2168 15.0828 26.1895C17.6084 32.1621 24.5097 34.9616 30.4974 32.4424Z" fill="url(#paint3_linear_2137_45689)"/>
<path d="M25.9252 32.6813C22.8616 32.6782 19.9202 31.4829 17.7267 29.3496C15.5332 27.2164 14.2607 24.3136 14.18 21.2588C14.18 21.3761 14.18 21.4828 14.18 21.6001C14.18 24.7115 15.4191 27.6956 17.6247 29.8957C19.8304 32.0958 22.8219 33.3319 25.9412 33.3319C29.0605 33.3319 32.052 32.0958 34.2576 29.8957C36.4633 27.6956 37.7024 24.7115 37.7024 21.6001C37.7024 21.4828 37.7024 21.3761 37.7024 21.2588C37.6215 24.3191 36.3446 27.2266 34.1442 29.3608C31.9438 31.4949 28.9942 32.6865 25.9252 32.6813Z" fill="#BBBCBF"/>
<path d="M25.9252 9.88416C22.8697 9.8869 19.9353 11.0756 17.7431 13.1986C15.5509 15.3216 14.273 18.2123 14.18 21.2587C14.18 21.1467 14.18 21.0347 14.18 20.9227C14.18 17.8112 15.4191 14.8272 17.6247 12.6271C19.8304 10.4269 22.8219 9.19092 25.9412 9.19092C29.0605 9.19092 32.052 10.4269 34.2576 12.6271C36.4633 14.8272 37.7024 17.8112 37.7024 20.9227C37.7024 21.0347 37.7024 21.1467 37.7024 21.2587C37.6092 18.2068 36.3269 15.3114 34.1278 13.1875C31.9287 11.0636 28.9861 9.87858 25.9252 9.88416Z" fill="white"/>
<path d="M24.2365 27.6152C24.0556 27.6154 23.8787 27.562 23.7282 27.4618C23.5777 27.3617 23.4603 27.2192 23.3911 27.0524C23.3218 26.8857 23.3037 26.7022 23.3391 26.5252C23.3744 26.3482 23.4616 26.1856 23.5897 26.0581L28.3743 21.2587L23.5897 16.4594C23.5047 16.3746 23.4373 16.274 23.3913 16.1633C23.3454 16.0526 23.3217 15.934 23.3217 15.8141C23.3217 15.6943 23.3454 15.5756 23.3913 15.4649C23.4373 15.3542 23.5047 15.2536 23.5897 15.1689C23.6746 15.0841 23.7754 15.0169 23.8864 14.9711C23.9974 14.9252 24.1164 14.9016 24.2365 14.9016C24.3567 14.9016 24.4756 14.9252 24.5866 14.9711C24.6976 15.0169 24.7984 15.0841 24.8834 15.1689L30.3149 20.6348C30.4841 20.7993 30.5819 21.0232 30.5876 21.2587C30.5882 21.3791 30.5644 21.4983 30.5175 21.6092C30.4706 21.7201 30.4017 21.8204 30.3149 21.904L24.8834 27.3486C24.7105 27.5176 24.4786 27.6132 24.2365 27.6152Z" fill="url(#paint4_linear_2137_45689)"/>
<path d="M66.9084 18.7464C66.8686 18.3454 66.6979 18.0339 66.3963 17.8118C66.0947 17.5897 65.6854 17.4787 65.1683 17.4787C64.817 17.4787 64.5204 17.5284 64.2784 17.6278C64.0365 17.724 63.8509 17.8582 63.7216 18.0305C63.5956 18.2029 63.5327 18.3984 63.5327 18.6172C63.526 18.7995 63.5642 18.9586 63.647 19.0945C63.7332 19.2304 63.8509 19.348 64 19.4474C64.1491 19.5436 64.3215 19.6281 64.517 19.701C64.7126 19.7706 64.9214 19.8303 65.1435 19.88L66.0582 20.0987C66.5024 20.1982 66.91 20.3307 67.2812 20.4964C67.6525 20.6622 67.974 20.866 68.2457 21.108C68.5175 21.3499 68.728 21.6349 68.8771 21.9631C69.0296 22.2912 69.1075 22.6674 69.1108 23.0916C69.1075 23.7147 68.9484 24.255 68.6335 24.7124C68.322 25.1664 67.8712 25.5194 67.2812 25.7713C66.6946 26.0199 65.987 26.1442 65.1584 26.1442C64.3364 26.1442 63.6205 26.0182 63.0107 25.7663C62.4041 25.5144 61.9302 25.1416 61.5888 24.6477C61.2507 24.1506 61.0734 23.5357 61.0568 22.8033H63.1399C63.1631 23.1446 63.2609 23.4297 63.4332 23.6584C63.6089 23.8838 63.8426 24.0545 64.1342 24.1705C64.4292 24.2831 64.7623 24.3395 65.1335 24.3395C65.4981 24.3395 65.8146 24.2865 66.0831 24.1804C66.3549 24.0743 66.5653 23.9268 66.7145 23.7379C66.8636 23.549 66.9382 23.3319 66.9382 23.0866C66.9382 22.858 66.8703 22.6657 66.7344 22.5099C66.6018 22.3542 66.4063 22.2216 66.1477 22.1122C65.8925 22.0028 65.5793 21.9034 65.2081 21.8139L64.0994 21.5355C63.241 21.3267 62.5632 21.0002 62.0661 20.5561C61.5689 20.112 61.322 19.5137 61.3253 18.7614C61.322 18.1449 61.486 17.6063 61.8175 17.1456C62.1522 16.6849 62.6113 16.3253 63.1946 16.0668C63.7779 15.8082 64.4408 15.679 65.1832 15.679C65.9389 15.679 66.5985 15.8082 67.1619 16.0668C67.7287 16.3253 68.1695 16.6849 68.4844 17.1456C68.7992 17.6063 68.9616 18.1399 68.9716 18.7464H66.9084ZM79.9153 20.9091C79.9153 22.0194 79.7048 22.964 79.2839 23.7429C78.8663 24.5218 78.2962 25.1167 77.5737 25.5277C76.8545 25.9354 76.0458 26.1392 75.1475 26.1392C74.2427 26.1392 73.4307 25.9337 72.7115 25.5227C71.9922 25.1117 71.4238 24.5168 71.0062 23.7379C70.5886 22.959 70.3798 22.0161 70.3798 20.9091C70.3798 19.7988 70.5886 18.8542 71.0062 18.0753C71.4238 17.2964 71.9922 16.7031 72.7115 16.2955C73.4307 15.8845 74.2427 15.679 75.1475 15.679C76.0458 15.679 76.8545 15.8845 77.5737 16.2955C78.2962 16.7031 78.8663 17.2964 79.2839 18.0753C79.7048 18.8542 79.9153 19.7988 79.9153 20.9091ZM77.7328 20.9091C77.7328 20.1899 77.6251 19.5833 77.4096 19.0895C77.1975 18.5956 76.8975 18.2211 76.5098 17.9659C76.122 17.7107 75.6679 17.5831 75.1475 17.5831C74.6272 17.5831 74.1731 17.7107 73.7853 17.9659C73.3975 18.2211 73.0959 18.5956 72.8805 19.0895C72.6684 19.5833 72.5623 20.1899 72.5623 20.9091C72.5623 21.6283 72.6684 22.2348 72.8805 22.7287C73.0959 23.2225 73.3975 23.5971 73.7853 23.8523C74.1731 24.1075 74.6272 24.2351 75.1475 24.2351C75.6679 24.2351 76.122 24.1075 76.5098 23.8523C76.8975 23.5971 77.1975 23.2225 77.4096 22.7287C77.6251 22.2348 77.7328 21.6283 77.7328 20.9091ZM75.7392 13.4915L77.698 15.0376H76.2413L75.1376 14.1676L74.019 15.0376H72.5623L74.5211 13.4915H75.7392ZM78.1504 14.1676H77.0517L76.9572 13.4219C77.2422 13.4086 77.4494 13.3722 77.5787 13.3125C77.7079 13.2528 77.7725 13.165 77.7725 13.049C77.7725 12.8965 77.6913 12.7938 77.5289 12.7408C77.3665 12.6877 77.1644 12.6612 76.9224 12.6612L76.9721 11.8608C77.6449 11.8608 78.1587 11.9602 78.5133 12.1591C78.868 12.3546 79.0453 12.6314 79.0453 12.9893C79.0453 13.2379 78.9508 13.4285 78.7619 13.5611C78.5763 13.6903 78.3725 13.7732 78.1504 13.8097V14.1676ZM91.5016 19.1094C91.432 18.8674 91.3342 18.6536 91.2083 18.468C91.0823 18.2791 90.9282 18.12 90.7459 17.9908C90.5669 17.8582 90.3614 17.7571 90.1294 17.6875C89.9007 17.6179 89.6472 17.5831 89.3688 17.5831C88.8484 17.5831 88.391 17.7124 87.9966 17.9709C87.6055 18.2294 87.3006 18.6056 87.0819 19.0994C86.8631 19.59 86.7537 20.1899 86.7537 20.8991C86.7537 21.6084 86.8614 22.2116 87.0769 22.7088C87.2923 23.206 87.5972 23.5855 87.9917 23.8473C88.3861 24.1058 88.8517 24.2351 89.3887 24.2351C89.8759 24.2351 90.2918 24.1489 90.6365 23.9766C90.9846 23.8009 91.2497 23.554 91.432 23.2358C91.6176 22.9176 91.7104 22.5414 91.7104 22.1072L92.1479 22.1719H89.5229V20.5511H93.7836V21.8338C93.7836 22.7287 93.5946 23.4976 93.2168 24.1406C92.839 24.7803 92.3186 25.2741 91.6557 25.6222C90.9928 25.9669 90.2338 26.1392 89.3787 26.1392C88.4242 26.1392 87.5856 25.9287 86.8631 25.5078C86.1406 25.0836 85.5771 24.482 85.1728 23.7031C84.7717 22.9209 84.5712 21.9929 84.5712 20.919C84.5712 20.0937 84.6905 19.358 84.9292 18.7116C85.1711 18.062 85.5092 17.5118 85.9434 17.0611C86.3775 16.6103 86.883 16.2673 87.4597 16.032C88.0364 15.7966 88.6612 15.679 89.334 15.679C89.9107 15.679 90.4476 15.7635 90.9448 15.9325C91.4419 16.0982 91.8828 16.3336 92.2672 16.6385C92.655 16.9434 92.9715 17.3063 93.2168 17.7273C93.4621 18.1449 93.6195 18.6056 93.6891 19.1094H91.5016ZM96.8411 26H94.5343L98.0492 15.8182H100.823L104.333 26H102.026L99.476 18.1449H99.3965L96.8411 26ZM96.6969 21.9979H102.146V23.6783H96.6969V21.9979ZM99.4363 28.8587C99.1214 28.8587 98.8513 28.7543 98.6259 28.5455C98.4005 28.3366 98.2878 28.0848 98.2878 27.7898C98.2878 27.4948 98.4005 27.2429 98.6259 27.0341C98.8513 26.8253 99.1214 26.7209 99.4363 26.7209C99.7511 26.7209 100.02 26.8253 100.242 27.0341C100.467 27.2429 100.58 27.4948 100.58 27.7898C100.58 28.0848 100.467 28.3366 100.242 28.5455C100.02 28.7543 99.7511 28.8587 99.4363 28.8587ZM114.437 20.9091C114.437 22.0194 114.226 22.964 113.805 23.7429C113.388 24.5218 112.818 25.1167 112.095 25.5277C111.376 25.9354 110.567 26.1392 109.669 26.1392C108.764 26.1392 107.952 25.9337 107.233 25.5227C106.514 25.1117 105.945 24.5168 105.528 23.7379C105.11 22.959 104.901 22.0161 104.901 20.9091C104.901 19.7988 105.11 18.8542 105.528 18.0753C105.945 17.2964 106.514 16.7031 107.233 16.2955C107.952 15.8845 108.764 15.679 109.669 15.679C110.567 15.679 111.376 15.8845 112.095 16.2955C112.818 16.7031 113.388 17.2964 113.805 18.0753C114.226 18.8542 114.437 19.7988 114.437 20.9091ZM112.254 20.9091C112.254 20.1899 112.147 19.5833 111.931 19.0895C111.719 18.5956 111.419 18.2211 111.031 17.9659C110.643 17.7107 110.189 17.5831 109.669 17.5831C109.149 17.5831 108.695 17.7107 108.307 17.9659C107.919 18.2211 107.617 18.5956 107.402 19.0895C107.19 19.5833 107.084 20.1899 107.084 20.9091C107.084 21.6283 107.19 22.2348 107.402 22.7287C107.617 23.2225 107.919 23.5971 108.307 23.8523C108.695 24.1075 109.149 24.2351 109.669 24.2351C110.189 24.2351 110.643 24.1075 111.031 23.8523C111.419 23.5971 111.719 23.2225 111.931 22.7287C112.147 22.2348 112.254 21.6283 112.254 20.9091Z" fill="#486AB0"/>
<defs>
<filter id="filter0_d_2137_45689" x="27.2159" y="1.0686" width="123.461" height="51.0999" filterUnits="userSpaceOnUse" color-interpolation-filters="sRGB">
<feFlood flood-opacity="0" result="BackgroundImageFix"/>
<feColorMatrix in="SourceAlpha" type="matrix" values="0 0 0 0 0 0 0 0 0 0 0 0 0 0 0 0 0 0 127 0" result="hardAlpha"/>
<feOffset dy="5"/>
<feGaussianBlur stdDeviation="5"/>
<feComposite in2="hardAlpha" operator="out"/>
<feColorMatrix type="matrix" values="0 0 0 0 0.054902 0 0 0 0 0.14902 0 0 0 0 0.286275 0 0 0 0.25 0"/>
<feBlend mode="normal" in2="BackgroundImageFix" result="effect1_dropShadow_2137_45689"/>
<feBlend mode="normal" in="SourceGraphic" in2="effect1_dropShadow_2137_45689" result="shape"/>
</filter>
<filter id="filter1_d_2137_45689" x="0.233374" y="0.9708" width="51.386" height="51.3079" filterUnits="userSpaceOnUse" color-interpolation-filters="sRGB">
<feFlood flood-opacity="0" result="BackgroundImageFix"/>
<feColorMatrix in="SourceAlpha" type="matrix" values="0 0 0 0 0 0 0 0 0 0 0 0 0 0 0 0 0 0 127 0" result="hardAlpha"/>
<feOffset dy="5"/>
<feGaussianBlur stdDeviation="5.05"/>
<feComposite in2="hardAlpha" operator="out"/>
<feColorMatrix type="matrix" values="0 0 0 0 0.0539063 0 0 0 0 0.147344 0 0 0 0 0.2875 0 0 0 0.25 0"/>
<feBlend mode="normal" in2="BackgroundImageFix" result="effect1_dropShadow_2137_45689"/>
<feBlend mode="normal" in="SourceGraphic" in2="effect1_dropShadow_2137_45689" result="shape"/>
</filter>
<linearGradient id="paint0_linear_2137_45689" x1="88.7995" y1="37.1658" x2="88.7995" y2="6.07127" gradientUnits="userSpaceOnUse">
<stop stop-color="#006FE4"/>
<stop offset="1" stop-color="#03B0F3"/>
</linearGradient>
<linearGradient id="paint1_linear_2137_45689" x1="88.821" y1="33.0172" x2="88.821" y2="10.2202" gradientUnits="userSpaceOnUse">
<stop stop-color="#E9E9E9"/>
<stop offset="1" stop-color="white"/>
</linearGradient>
<linearGradient id="paint2_linear_2137_45689" x1="25.9254" y1="37.1672" x2="25.9254" y2="6.07264" gradientUnits="userSpaceOnUse">
<stop stop-color="#0173E5"/>
<stop offset="1" stop-color="#61CCF8"/>
</linearGradient>
<linearGradient id="paint3_linear_2137_45689" x1="25.9266" y1="33.3553" x2="25.9266" y2="9.88639" gradientUnits="userSpaceOnUse">
<stop stop-color="#E5E5E5"/>
<stop offset="1" stop-color="white"/>
</linearGradient>
<linearGradient id="paint4_linear_2137_45689" x1="20.8685" y1="24.6396" x2="27.5823" y2="17.909" gradientUnits="userSpaceOnUse">
<stop stop-color="#323B8C"/>
<stop offset="1" stop-color="#65A8DF"/>
</linearGradient>
</defs>
</svg>
