<svg width="151" height="53" viewBox="0 0 151 53" fill="none" xmlns="http://www.w3.org/2000/svg">
<g filter="url(#filter0_d_2137_36268)">
<path d="M124.8 6.07127H37.2159C39.6793 7.85121 41.6847 10.1883 43.0677 12.8908C44.4506 15.5933 45.1716 18.5843 45.1716 21.6186C45.1716 24.6528 44.4506 27.6438 43.0677 30.3463C41.6847 33.0488 39.6793 35.3859 37.2159 37.1658H124.8C126.871 37.2041 128.929 36.8302 130.853 36.0661C132.778 35.3019 134.531 34.1629 136.009 32.7154C137.487 31.2679 138.661 29.541 139.463 27.6357C140.264 25.7304 140.677 23.6848 140.677 21.6186C140.677 19.5523 140.264 17.5067 139.463 15.6014C138.661 13.6961 137.487 11.9692 136.009 10.5217C134.531 9.07425 132.778 7.93515 130.853 7.17101C128.929 6.40687 126.871 6.03301 124.8 6.07127Z" fill="url(#paint0_linear_2137_36268)"/>
</g>
<path d="M124.8 6.07129H37.2159C37.5206 6.28993 37.8146 6.5139 38.1033 6.7432H124.8C128.875 6.74367 132.788 8.33656 135.7 11.1805C138.612 14.0244 140.291 17.893 140.378 21.9572C140.378 21.8452 140.378 21.7332 140.378 21.6212C140.379 19.5799 139.976 17.5584 139.194 15.6722C138.411 13.7859 137.264 12.0719 135.817 10.628C134.371 9.18403 132.653 8.03843 130.763 7.25659C128.872 6.47476 126.846 6.07199 124.8 6.07129Z" fill="#B1D9F4"/>
<path d="M140.373 21.2588C140.291 25.3258 138.615 29.199 135.704 32.0474C132.792 34.8957 128.878 36.4921 124.8 36.4941H38.1033C37.8146 36.7287 37.5206 36.9527 37.2159 37.166H124.8C126.847 37.1667 128.874 36.7652 130.765 35.9843C132.656 35.2034 134.375 34.0585 135.822 32.615C137.27 31.1715 138.418 29.4576 139.202 27.5713C139.985 25.685 140.389 23.6632 140.389 21.6214C140.383 21.5041 140.378 21.3921 140.373 21.2588Z" fill="#246CA7"/>
<path d="M124.8 10.2202H41.4018C43.8439 13.5214 45.1615 17.5161 45.1615 21.6187C45.1615 25.7213 43.8439 29.716 41.4018 33.0172H124.8C127.788 32.9527 130.631 31.7235 132.721 29.5929C134.812 27.4623 135.982 24.5998 135.982 21.6187C135.982 18.6376 134.812 15.7751 132.721 13.6445C130.631 11.5139 127.788 10.2847 124.8 10.2202Z" fill="url(#paint1_linear_2137_36268)"/>
<path d="M124.8 9.5271H40.8944C41.0761 9.74574 41.2472 9.96971 41.429 10.199H124.8C127.769 10.2019 130.621 11.3583 132.749 13.4231C134.878 15.4878 136.117 18.2984 136.203 21.2589C136.203 21.1469 136.203 21.0349 136.203 20.9229C136.203 17.9043 135.002 15.0089 132.865 12.8724C130.727 10.7359 127.826 9.53275 124.8 9.5271Z" fill="white"/>
<path d="M136.203 21.2588C136.123 24.223 134.886 27.039 132.757 29.1083C130.628 31.1776 127.773 32.3369 124.8 32.34H41.8997C41.7446 32.5693 41.5842 32.7933 41.4185 33.0172H124.8C127.83 33.0172 130.736 31.8166 132.879 29.6795C135.021 27.5423 136.225 24.6438 136.225 21.6214C136.219 21.5041 136.209 21.3974 136.203 21.2588Z" fill="#BBBCBF"/>
<g filter="url(#filter1_d_2137_36268)">
<path d="M31.9924 35.9492C39.9234 32.6074 43.6369 23.4851 40.2867 15.574C36.9365 7.66285 27.7913 3.95867 19.8603 7.30046C11.9293 10.6423 8.21586 19.7646 11.566 27.6757C14.9162 35.5868 24.0614 39.291 31.9924 35.9492Z" fill="url(#paint2_linear_2137_36268)"/>
</g>
<path d="M30.4974 32.4424C36.485 29.9231 39.2916 23.039 36.766 17.0664C34.2404 11.0937 27.339 8.2942 21.3514 10.8135C15.3637 13.3327 12.5572 20.2168 15.0828 26.1895C17.6084 32.1621 24.5097 34.9616 30.4974 32.4424Z" fill="url(#paint3_linear_2137_36268)"/>
<path d="M25.9252 32.6813C22.8616 32.6782 19.9202 31.4829 17.7267 29.3496C15.5332 27.2164 14.2607 24.3136 14.18 21.2588C14.18 21.3761 14.18 21.4828 14.18 21.6001C14.18 24.7115 15.4191 27.6956 17.6247 29.8957C19.8304 32.0958 22.8219 33.3319 25.9412 33.3319C29.0605 33.3319 32.052 32.0958 34.2576 29.8957C36.4633 27.6956 37.7024 24.7115 37.7024 21.6001C37.7024 21.4828 37.7024 21.3761 37.7024 21.2588C37.6215 24.3191 36.3446 27.2266 34.1442 29.3608C31.9438 31.4949 28.9942 32.6865 25.9252 32.6813Z" fill="#BBBCBF"/>
<path d="M25.9252 9.88416C22.8697 9.8869 19.9353 11.0756 17.7431 13.1986C15.5509 15.3216 14.273 18.2123 14.18 21.2587C14.18 21.1467 14.18 21.0347 14.18 20.9227C14.18 17.8112 15.4191 14.8272 17.6247 12.6271C19.8304 10.4269 22.8219 9.19092 25.9412 9.19092C29.0605 9.19092 32.052 10.4269 34.2576 12.6271C36.4633 14.8272 37.7024 17.8112 37.7024 20.9227C37.7024 21.0347 37.7024 21.1467 37.7024 21.2587C37.6092 18.2068 36.3269 15.3114 34.1278 13.1875C31.9287 11.0636 28.9861 9.87858 25.9252 9.88416Z" fill="white"/>
<path d="M24.2365 27.6152C24.0556 27.6154 23.8787 27.562 23.7282 27.4618C23.5777 27.3617 23.4603 27.2192 23.3911 27.0524C23.3218 26.8857 23.3037 26.7022 23.3391 26.5252C23.3744 26.3482 23.4616 26.1856 23.5897 26.0581L28.3743 21.2587L23.5897 16.4594C23.5047 16.3746 23.4373 16.274 23.3913 16.1633C23.3454 16.0526 23.3217 15.934 23.3217 15.8141C23.3217 15.6943 23.3454 15.5756 23.3913 15.4649C23.4373 15.3542 23.5047 15.2536 23.5897 15.1689C23.6746 15.0841 23.7754 15.0169 23.8864 14.9711C23.9974 14.9252 24.1164 14.9016 24.2365 14.9016C24.3567 14.9016 24.4756 14.9252 24.5866 14.9711C24.6976 15.0169 24.7984 15.0841 24.8834 15.1689L30.3149 20.6348C30.4841 20.7993 30.5819 21.0232 30.5876 21.2587C30.5882 21.3791 30.5644 21.4983 30.5175 21.6092C30.4706 21.7201 30.4017 21.8204 30.3149 21.904L24.8834 27.3486C24.7105 27.5176 24.4786 27.6132 24.2365 27.6152Z" fill="url(#paint4_linear_2137_36268)"/>
<path d="M61.228 22.4602H63.0575L63.9773 23.6435L64.8821 24.6974L66.5874 26.8352H64.5788L63.4055 25.3935L62.804 24.5384L61.228 22.4602ZM66.7415 20.9091C66.7415 22.0194 66.531 22.964 66.1101 23.7429C65.6925 24.5218 65.1224 25.1167 64.3999 25.5277C63.6806 25.9354 62.8719 26.1392 61.9737 26.1392C61.0689 26.1392 60.2569 25.9337 59.5376 25.5227C58.8184 25.1117 58.25 24.5168 57.8324 23.7379C57.4148 22.959 57.206 22.0161 57.206 20.9091C57.206 19.7988 57.4148 18.8542 57.8324 18.0753C58.25 17.2964 58.8184 16.7031 59.5376 16.2955C60.2569 15.8845 61.0689 15.679 61.9737 15.679C62.8719 15.679 63.6806 15.8845 64.3999 16.2955C65.1224 16.7031 65.6925 17.2964 66.1101 18.0753C66.531 18.8542 66.7415 19.7988 66.7415 20.9091ZM64.5589 20.9091C64.5589 20.1899 64.4512 19.5833 64.2358 19.0895C64.0237 18.5956 63.7237 18.2211 63.3359 17.9659C62.9482 17.7107 62.4941 17.5831 61.9737 17.5831C61.4534 17.5831 60.9993 17.7107 60.6115 17.9659C60.2237 18.2211 59.9221 18.5956 59.7067 19.0895C59.4946 19.5833 59.3885 20.1899 59.3885 20.9091C59.3885 21.6283 59.4946 22.2348 59.7067 22.7287C59.9221 23.2225 60.2237 23.5971 60.6115 23.8523C60.9993 24.1075 61.4534 24.2351 61.9737 24.2351C62.4941 24.2351 62.9482 24.1075 63.3359 23.8523C63.7237 23.5971 64.0237 23.2225 64.2358 22.7287C64.4512 22.2348 64.5589 21.6283 64.5589 20.9091ZM74.6252 15.8182H76.7779V22.4304C76.7779 23.1728 76.6006 23.8224 76.2459 24.3793C75.8946 24.9361 75.4024 25.3703 74.7694 25.6818C74.1363 25.9901 73.3989 26.1442 72.557 26.1442C71.7118 26.1442 70.9727 25.9901 70.3397 25.6818C69.7066 25.3703 69.2144 24.9361 68.8631 24.3793C68.5118 23.8224 68.3361 23.1728 68.3361 22.4304V15.8182H70.4888V22.2464C70.4888 22.6342 70.5733 22.9789 70.7424 23.2805C70.9147 23.5821 71.1567 23.8191 71.4682 23.9915C71.7798 24.1638 72.1427 24.25 72.557 24.25C72.9746 24.25 73.3375 24.1638 73.6458 23.9915C73.9573 23.8191 74.1976 23.5821 74.3667 23.2805C74.539 22.9789 74.6252 22.6342 74.6252 22.2464V15.8182ZM77.9524 15.8182H80.3636L82.6854 20.2031H82.7848L85.1065 15.8182H87.5178L83.804 22.4006V26H81.6662V22.4006L77.9524 15.8182ZM95.5431 26H92.8933V24.1555H95.4537C96.09 24.1555 96.6253 24.0429 97.0595 23.8175C97.497 23.5888 97.8251 23.2358 98.0439 22.7585C98.2659 22.2779 98.377 21.6581 98.377 20.8991C98.377 20.1468 98.2659 19.532 98.0439 19.0547C97.8251 18.5774 97.4986 18.2261 97.0645 18.0007C96.6303 17.7753 96.095 17.6626 95.4586 17.6626H92.8485V15.8182H95.573C96.5971 15.8182 97.4788 16.022 98.2179 16.4297C98.957 16.834 99.5254 17.4157 99.9231 18.1747C100.324 18.9337 100.525 19.8419 100.525 20.8991C100.525 21.9598 100.324 22.8712 99.9231 23.6335C99.5254 24.3958 98.9537 24.9808 98.2079 25.3885C97.4655 25.7962 96.5772 26 95.5431 26ZM94.0865 15.8182V26H91.9338V15.8182H94.0865ZM90.5218 21.2571V20.0043H95.4785V21.2571H90.5218ZM111.476 20.9091C111.476 22.0194 111.265 22.964 110.844 23.7429C110.427 24.5218 109.857 25.1167 109.134 25.5277C108.415 25.9354 107.606 26.1392 106.708 26.1392C105.803 26.1392 104.991 25.9337 104.272 25.5227C103.553 25.1117 102.984 24.5168 102.567 23.7379C102.149 22.959 101.94 22.0161 101.94 20.9091C101.94 19.7988 102.149 18.8542 102.567 18.0753C102.984 17.2964 103.553 16.7031 104.272 16.2955C104.991 15.8845 105.803 15.679 106.708 15.679C107.606 15.679 108.415 15.8845 109.134 16.2955C109.857 16.7031 110.427 17.2964 110.844 18.0753C111.265 18.8542 111.476 19.7988 111.476 20.9091ZM109.293 20.9091C109.293 20.1899 109.186 19.5833 108.97 19.0895C108.758 18.5956 108.458 18.2211 108.07 17.9659C107.683 17.7107 107.228 17.5831 106.708 17.5831C106.188 17.5831 105.734 17.7107 105.346 17.9659C104.958 18.2211 104.656 18.5956 104.441 19.0895C104.229 19.5833 104.123 20.1899 104.123 20.9091C104.123 21.6283 104.229 22.2348 104.441 22.7287C104.656 23.2225 104.958 23.5971 105.346 23.8523C105.734 24.1075 106.188 24.2351 106.708 24.2351C107.228 24.2351 107.683 24.1075 108.07 23.8523C108.458 23.5971 108.758 23.2225 108.97 22.7287C109.186 22.2348 109.293 21.6283 109.293 20.9091ZM107.3 13.4915L109.259 15.0376H107.802L106.698 14.1676L105.58 15.0376H104.123L106.082 13.4915H107.3ZM109.711 14.1676H108.612L108.518 13.4219C108.803 13.4086 109.01 13.3722 109.139 13.3125C109.268 13.2528 109.333 13.165 109.333 13.049C109.333 12.8965 109.252 12.7938 109.089 12.7408C108.927 12.6877 108.725 12.6612 108.483 12.6612L108.533 11.8608C109.205 11.8608 109.719 11.9602 110.074 12.1591C110.429 12.3546 110.606 12.6314 110.606 12.9893C110.606 13.2379 110.511 13.4285 110.322 13.5611C110.137 13.6903 109.933 13.7732 109.711 13.8097V14.1676ZM115.223 15.8182V26H113.07V15.8182H115.223Z" fill="#486AB0"/>
<defs>
<filter id="filter0_d_2137_36268" x="27.2159" y="1.0686" width="123.461" height="51.0999" filterUnits="userSpaceOnUse" color-interpolation-filters="sRGB">
<feFlood flood-opacity="0" result="BackgroundImageFix"/>
<feColorMatrix in="SourceAlpha" type="matrix" values="0 0 0 0 0 0 0 0 0 0 0 0 0 0 0 0 0 0 127 0" result="hardAlpha"/>
<feOffset dy="5"/>
<feGaussianBlur stdDeviation="5"/>
<feComposite in2="hardAlpha" operator="out"/>
<feColorMatrix type="matrix" values="0 0 0 0 0.054902 0 0 0 0 0.14902 0 0 0 0 0.286275 0 0 0 0.25 0"/>
<feBlend mode="normal" in2="BackgroundImageFix" result="effect1_dropShadow_2137_36268"/>
<feBlend mode="normal" in="SourceGraphic" in2="effect1_dropShadow_2137_36268" result="shape"/>
</filter>
<filter id="filter1_d_2137_36268" x="0.233374" y="0.9708" width="51.386" height="51.3079" filterUnits="userSpaceOnUse" color-interpolation-filters="sRGB">
<feFlood flood-opacity="0" result="BackgroundImageFix"/>
<feColorMatrix in="SourceAlpha" type="matrix" values="0 0 0 0 0 0 0 0 0 0 0 0 0 0 0 0 0 0 127 0" result="hardAlpha"/>
<feOffset dy="5"/>
<feGaussianBlur stdDeviation="5.05"/>
<feComposite in2="hardAlpha" operator="out"/>
<feColorMatrix type="matrix" values="0 0 0 0 0.0539063 0 0 0 0 0.147344 0 0 0 0 0.2875 0 0 0 0.25 0"/>
<feBlend mode="normal" in2="BackgroundImageFix" result="effect1_dropShadow_2137_36268"/>
<feBlend mode="normal" in="SourceGraphic" in2="effect1_dropShadow_2137_36268" result="shape"/>
</filter>
<linearGradient id="paint0_linear_2137_36268" x1="88.7995" y1="37.1658" x2="88.7995" y2="6.07127" gradientUnits="userSpaceOnUse">
<stop stop-color="#006FE4"/>
<stop offset="1" stop-color="#03B0F3"/>
</linearGradient>
<linearGradient id="paint1_linear_2137_36268" x1="88.821" y1="33.0172" x2="88.821" y2="10.2202" gradientUnits="userSpaceOnUse">
<stop stop-color="#E9E9E9"/>
<stop offset="1" stop-color="white"/>
</linearGradient>
<linearGradient id="paint2_linear_2137_36268" x1="25.9254" y1="37.1672" x2="25.9254" y2="6.07264" gradientUnits="userSpaceOnUse">
<stop stop-color="#0173E5"/>
<stop offset="1" stop-color="#61CCF8"/>
</linearGradient>
<linearGradient id="paint3_linear_2137_36268" x1="25.9266" y1="33.3553" x2="25.9266" y2="9.88639" gradientUnits="userSpaceOnUse">
<stop stop-color="#E5E5E5"/>
<stop offset="1" stop-color="white"/>
</linearGradient>
<linearGradient id="paint4_linear_2137_36268" x1="20.8685" y1="24.6396" x2="27.5823" y2="17.909" gradientUnits="userSpaceOnUse">
<stop stop-color="#323B8C"/>
<stop offset="1" stop-color="#65A8DF"/>
</linearGradient>
</defs>
</svg>
