<svg width="151" height="53" viewBox="0 0 151 53" fill="none" xmlns="http://www.w3.org/2000/svg">
<g filter="url(#filter0_d_2863_202666)">
<path d="M124.8 6.07127H37.2158C39.6793 7.85121 41.6847 10.1883 43.0676 12.8908C44.4505 15.5933 45.1716 18.5843 45.1716 21.6186C45.1716 24.6528 44.4505 27.6438 43.0676 30.3463C41.6847 33.0488 39.6793 35.3859 37.2158 37.1658H124.8C126.871 37.2041 128.929 36.8302 130.853 36.0661C132.778 35.3019 134.531 34.1629 136.009 32.7154C137.487 31.2679 138.661 29.541 139.463 27.6357C140.264 25.7304 140.677 23.6848 140.677 21.6186C140.677 19.5523 140.264 17.5067 139.463 15.6014C138.661 13.6961 137.487 11.9692 136.009 10.5217C134.531 9.07425 132.778 7.93515 130.853 7.17101C128.929 6.40687 126.871 6.03301 124.8 6.07127Z" fill="url(#paint0_linear_2863_202666)"/>
</g>
<path d="M124.8 6.07123H37.2158C37.5205 6.28987 37.8146 6.51384 38.1033 6.74314H124.8C128.875 6.74361 132.788 8.3365 135.7 11.1804C138.612 14.0243 140.291 17.8929 140.378 21.9571C140.378 21.8451 140.378 21.7332 140.378 21.6212C140.379 19.5798 139.976 17.5583 139.194 15.6721C138.411 13.7859 137.264 12.0719 135.817 10.6279C134.371 9.18397 132.653 8.03837 130.763 7.25653C128.872 6.47469 126.846 6.07193 124.8 6.07123Z" fill="#B1D9F4"/>
<path d="M140.373 21.2588C140.291 25.3258 138.615 29.199 135.704 32.0474C132.792 34.8957 128.878 36.4921 124.8 36.4941H38.1033C37.8146 36.7287 37.5205 36.9527 37.2158 37.166H124.8C126.846 37.1667 128.874 36.7652 130.765 35.9843C132.656 35.2034 134.375 34.0585 135.822 32.615C137.27 31.1715 138.418 29.4576 139.202 27.5713C139.985 25.685 140.389 23.6632 140.389 21.6214C140.383 21.5041 140.378 21.3921 140.373 21.2588Z" fill="#246CA7"/>
<path d="M124.799 10.2202H41.4014C43.8434 13.5213 45.161 17.516 45.161 21.6187C45.161 25.7213 43.8434 29.716 41.4014 33.0171H124.799C127.787 32.9527 130.631 31.7234 132.721 29.5928C134.811 27.4622 135.982 24.5997 135.982 21.6187C135.982 18.6376 134.811 15.7751 132.721 13.6445C130.631 11.5138 127.787 10.2846 124.799 10.2202Z" fill="url(#paint1_linear_2863_202666)"/>
<path d="M124.8 9.52698H40.8945C41.0763 9.74562 41.2474 9.96958 41.4291 10.1989H124.8C127.769 10.2018 130.621 11.3582 132.749 13.4229C134.878 15.4876 136.117 18.2982 136.203 21.2588C136.203 21.1468 136.203 21.0348 136.203 20.9228C136.203 17.9041 135.003 15.0088 132.865 12.8723C130.727 10.7358 127.826 9.53263 124.8 9.52698Z" fill="white"/>
<path d="M136.204 21.2588C136.123 24.223 134.887 27.039 132.757 29.1083C130.628 31.1776 127.774 32.3369 124.801 32.34H41.9001C41.7451 32.5693 41.5847 32.7933 41.4189 33.0172H124.801C127.831 33.0172 130.737 31.8166 132.879 29.6795C135.022 27.5423 136.225 24.6438 136.225 21.6214C136.22 21.5041 136.209 21.3974 136.204 21.2588Z" fill="#BBBCBF"/>
<g filter="url(#filter1_d_2863_202666)">
<path d="M31.9924 35.9492C39.9234 32.6074 43.6369 23.4851 40.2867 15.5739C36.9365 7.66279 27.7913 3.9586 19.8603 7.3004C11.9293 10.6422 8.21586 19.7645 11.566 27.6756C14.9162 35.5868 24.0614 39.291 31.9924 35.9492Z" fill="url(#paint2_linear_2863_202666)"/>
</g>
<path d="M30.4973 32.4423C36.485 29.923 39.2915 23.039 36.7659 17.0663C34.2404 11.0937 27.339 8.29414 21.3514 10.8134C15.3637 13.3327 12.5572 20.2167 15.0827 26.1894C17.6083 32.162 24.5097 34.9616 30.4973 32.4423Z" fill="url(#paint3_linear_2863_202666)"/>
<path d="M25.9249 32.6813C22.8614 32.6782 19.92 31.4829 17.7265 29.3496C15.5329 27.2164 14.2605 24.3136 14.1797 21.2588C14.1797 21.3761 14.1797 21.4828 14.1797 21.6001C14.1797 24.7115 15.4188 27.6956 17.6245 29.8957C19.8301 32.0958 22.8216 33.3319 25.9409 33.3319C29.0602 33.3319 32.0517 32.0958 34.2574 29.8957C36.463 27.6956 37.7022 24.7115 37.7022 21.6001C37.7022 21.4828 37.7022 21.3761 37.7022 21.2588C37.6212 24.3191 36.3443 27.2266 34.1439 29.3608C31.9435 31.4949 28.9939 32.6865 25.9249 32.6813Z" fill="#BBBCBF"/>
<path d="M25.9249 9.8841C22.8695 9.88684 19.935 11.0755 17.7428 13.1986C15.5506 15.3216 14.2727 18.2122 14.1797 21.2586C14.1797 21.1466 14.1797 21.0346 14.1797 20.9226C14.1797 17.8112 15.4188 14.8272 17.6245 12.627C19.8301 10.4269 22.8216 9.19086 25.9409 9.19086C29.0602 9.19086 32.0517 10.4269 34.2574 12.627C36.463 14.8272 37.7022 17.8112 37.7022 20.9226C37.7022 21.0346 37.7022 21.1466 37.7022 21.2586C37.6089 18.2067 36.3266 15.3113 34.1275 13.1874C31.9284 11.0635 28.9858 9.87852 25.9249 9.8841Z" fill="white"/>
<path d="M24.2364 27.6152C24.0554 27.6154 23.8785 27.562 23.728 27.4618C23.5775 27.3616 23.4602 27.2191 23.3909 27.0524C23.3217 26.8856 23.3036 26.7022 23.3389 26.5251C23.3743 26.3481 23.4615 26.1856 23.5895 26.058L28.3742 21.2587L23.5895 16.4593C23.5046 16.3746 23.4372 16.274 23.3912 16.1633C23.3452 16.0526 23.3216 15.9339 23.3216 15.8141C23.3216 15.6942 23.3452 15.5756 23.3912 15.4649C23.4372 15.3542 23.5046 15.2536 23.5895 15.1688C23.6744 15.0841 23.7753 15.0169 23.8863 14.971C23.9973 14.9252 24.1162 14.9016 24.2364 14.9016C24.3565 14.9016 24.4755 14.9252 24.5864 14.971C24.6974 15.0169 24.7983 15.0841 24.8832 15.1688L30.3148 20.6348C30.4839 20.7992 30.5818 21.0232 30.5874 21.2587C30.5881 21.379 30.5642 21.4983 30.5174 21.6092C30.4705 21.7201 30.4016 21.8203 30.3148 21.9039L24.8832 27.3485C24.7103 27.5176 24.4785 27.6131 24.2364 27.6152Z" fill="url(#paint4_linear_2863_202666)"/>
<path d="M52.3849 26V15.8182H54.5376V20.0192H58.9077V15.8182H61.0554V26H58.9077V21.794H54.5376V26H52.3849ZM64.5852 26H62.2784L65.7933 15.8182H68.5675L72.0774 26H69.7706L67.2202 18.1449H67.1406L64.5852 26ZM64.4411 21.9979H69.8899V23.6783H64.4411V21.9979ZM67.1804 28.8587C66.8655 28.8587 66.5954 28.7543 66.37 28.5455C66.1446 28.3366 66.032 28.0848 66.032 27.7898C66.032 27.4948 66.1446 27.2429 66.37 27.0341C66.5954 26.8253 66.8655 26.7209 67.1804 26.7209C67.4953 26.7209 67.7637 26.8253 67.9858 27.0341C68.2112 27.2429 68.3239 27.4948 68.3239 27.7898C68.3239 28.0848 68.2112 28.3366 67.9858 28.5455C67.7637 28.7543 67.4953 28.8587 67.1804 28.8587ZM81.8192 15.8182V26H79.9599L75.5302 19.5916H75.4556V26H73.3029V15.8182H75.1921L79.587 22.2216H79.6765V15.8182H81.8192ZM90.3493 19.1094C90.2797 18.8674 90.1819 18.6536 90.0559 18.468C89.93 18.2791 89.7759 18.12 89.5936 17.9908C89.4146 17.8582 89.2091 17.7571 88.9771 17.6875C88.7484 17.6179 88.4949 17.5831 88.2164 17.5831C87.6961 17.5831 87.2387 17.7124 86.8443 17.9709C86.4532 18.2294 86.1483 18.6056 85.9295 19.0994C85.7108 19.59 85.6014 20.1899 85.6014 20.8991C85.6014 21.6084 85.7091 22.2116 85.9245 22.7088C86.14 23.206 86.4449 23.5855 86.8393 23.8473C87.2337 24.1058 87.6994 24.2351 88.2363 24.2351C88.7235 24.2351 89.1395 24.1489 89.4842 23.9766C89.8322 23.8009 90.0974 23.554 90.2797 23.2358C90.4653 22.9176 90.5581 22.5414 90.5581 22.1072L90.9956 22.1719H88.3706V20.5511H92.6312V21.8338C92.6312 22.7287 92.4423 23.4976 92.0645 24.1406C91.6866 24.7803 91.1663 25.2741 90.5034 25.6222C89.8405 25.9669 89.0815 26.1392 88.2264 26.1392C87.2718 26.1392 86.4333 25.9287 85.7108 25.5078C84.9882 25.0836 84.4248 24.482 84.0204 23.7031C83.6194 22.9209 83.4189 21.9929 83.4189 20.919C83.4189 20.0937 83.5382 19.358 83.7768 18.7116C84.0188 18.062 84.3568 17.5118 84.791 17.0611C85.2252 16.6103 85.7306 16.2673 86.3074 16.032C86.8841 15.7966 87.5088 15.679 88.1816 15.679C88.7583 15.679 89.2953 15.7635 89.7924 15.9325C90.2896 16.0982 90.7304 16.3336 91.1149 16.6385C91.5027 16.9434 91.8192 17.3063 92.0645 17.7273C92.3097 18.1449 92.4672 18.6056 92.5368 19.1094H90.3493ZM97.1007 17.593V15.8182H105.463V17.593H102.346V26H100.218V17.593H97.1007ZM106.84 26V15.8182H108.993V20.0192H113.363V15.8182H115.51V26H113.363V21.794H108.993V26H106.84ZM117.285 26V15.8182H124.146V17.593H119.438V20.0192H123.793V21.794H119.438V24.2251H124.166V26H117.285ZM121.511 14.7244H119.94L119.831 13.8295C120.182 13.813 120.432 13.7666 120.581 13.6903C120.731 13.6108 120.804 13.5064 120.8 13.3771C120.804 13.1982 120.709 13.0772 120.517 13.0142C120.328 12.9512 120.091 12.9197 119.806 12.9197L119.861 11.9602C120.746 11.9602 121.418 12.0795 121.879 12.3182C122.343 12.5568 122.573 12.8883 122.57 13.3125C122.573 13.6141 122.464 13.8428 122.242 13.9986C122.023 14.151 121.78 14.2472 121.511 14.2869V14.7244Z" fill="#486AB0"/>
<defs>
<filter id="filter0_d_2863_202666" x="27.2158" y="1.0686" width="123.461" height="51.0999" filterUnits="userSpaceOnUse" color-interpolation-filters="sRGB">
<feFlood flood-opacity="0" result="BackgroundImageFix"/>
<feColorMatrix in="SourceAlpha" type="matrix" values="0 0 0 0 0 0 0 0 0 0 0 0 0 0 0 0 0 0 127 0" result="hardAlpha"/>
<feOffset dy="5"/>
<feGaussianBlur stdDeviation="5"/>
<feComposite in2="hardAlpha" operator="out"/>
<feColorMatrix type="matrix" values="0 0 0 0 0.054902 0 0 0 0 0.14902 0 0 0 0 0.286275 0 0 0 0.25 0"/>
<feBlend mode="normal" in2="BackgroundImageFix" result="effect1_dropShadow_2863_202666"/>
<feBlend mode="normal" in="SourceGraphic" in2="effect1_dropShadow_2863_202666" result="shape"/>
</filter>
<filter id="filter1_d_2863_202666" x="0.233007" y="0.9708" width="51.3865" height="51.308" filterUnits="userSpaceOnUse" color-interpolation-filters="sRGB">
<feFlood flood-opacity="0" result="BackgroundImageFix"/>
<feColorMatrix in="SourceAlpha" type="matrix" values="0 0 0 0 0 0 0 0 0 0 0 0 0 0 0 0 0 0 127 0" result="hardAlpha"/>
<feOffset dy="5"/>
<feGaussianBlur stdDeviation="5.05"/>
<feComposite in2="hardAlpha" operator="out"/>
<feColorMatrix type="matrix" values="0 0 0 0 0.0539063 0 0 0 0 0.147344 0 0 0 0 0.2875 0 0 0 0.25 0"/>
<feBlend mode="normal" in2="BackgroundImageFix" result="effect1_dropShadow_2863_202666"/>
<feBlend mode="normal" in="SourceGraphic" in2="effect1_dropShadow_2863_202666" result="shape"/>
</filter>
<linearGradient id="paint0_linear_2863_202666" x1="88.7995" y1="37.1658" x2="88.7995" y2="6.07127" gradientUnits="userSpaceOnUse">
<stop stop-color="#006FE4"/>
<stop offset="1" stop-color="#03B0F3"/>
</linearGradient>
<linearGradient id="paint1_linear_2863_202666" x1="88.8205" y1="33.0171" x2="88.8205" y2="10.2202" gradientUnits="userSpaceOnUse">
<stop stop-color="#E9E9E9"/>
<stop offset="1" stop-color="white"/>
</linearGradient>
<linearGradient id="paint2_linear_2863_202666" x1="25.9254" y1="37.1671" x2="25.9254" y2="6.07258" gradientUnits="userSpaceOnUse">
<stop stop-color="#0173E5"/>
<stop offset="1" stop-color="#61CCF8"/>
</linearGradient>
<linearGradient id="paint3_linear_2863_202666" x1="25.9266" y1="33.3552" x2="25.9266" y2="9.88633" gradientUnits="userSpaceOnUse">
<stop stop-color="#E5E5E5"/>
<stop offset="1" stop-color="white"/>
</linearGradient>
<linearGradient id="paint4_linear_2863_202666" x1="20.8684" y1="24.6396" x2="27.5821" y2="17.909" gradientUnits="userSpaceOnUse">
<stop stop-color="#323B8C"/>
<stop offset="1" stop-color="#65A8DF"/>
</linearGradient>
</defs>
</svg>
