<svg width="151" height="53" viewBox="0 0 151 53" fill="none" xmlns="http://www.w3.org/2000/svg">
<g filter="url(#filter0_d_2137_45837)">
<path d="M124.8 6.07127H37.2159C39.6793 7.85121 41.6847 10.1883 43.0677 12.8908C44.4506 15.5933 45.1716 18.5843 45.1716 21.6186C45.1716 24.6528 44.4506 27.6438 43.0677 30.3463C41.6847 33.0488 39.6793 35.3859 37.2159 37.1658H124.8C126.871 37.2041 128.929 36.8302 130.853 36.0661C132.778 35.3019 134.531 34.1629 136.009 32.7154C137.487 31.2679 138.661 29.541 139.463 27.6357C140.264 25.7304 140.677 23.6848 140.677 21.6186C140.677 19.5523 140.264 17.5067 139.463 15.6014C138.661 13.6961 137.487 11.9692 136.009 10.5217C134.531 9.07425 132.778 7.93515 130.853 7.17101C128.929 6.40687 126.871 6.03301 124.8 6.07127Z" fill="url(#paint0_linear_2137_45837)"/>
</g>
<path d="M124.8 6.07129H37.2159C37.5206 6.28993 37.8146 6.5139 38.1033 6.7432H124.8C128.875 6.74367 132.788 8.33656 135.7 11.1805C138.612 14.0244 140.291 17.893 140.378 21.9572C140.378 21.8452 140.378 21.7332 140.378 21.6212C140.379 19.5799 139.976 17.5584 139.194 15.6722C138.411 13.7859 137.264 12.0719 135.817 10.628C134.371 9.18403 132.653 8.03843 130.763 7.25659C128.872 6.47476 126.846 6.07199 124.8 6.07129Z" fill="#B1D9F4"/>
<path d="M140.373 21.2588C140.291 25.3258 138.615 29.199 135.704 32.0474C132.792 34.8957 128.878 36.4921 124.8 36.4941H38.1033C37.8146 36.7287 37.5206 36.9527 37.2159 37.166H124.8C126.847 37.1667 128.874 36.7652 130.765 35.9843C132.656 35.2034 134.375 34.0585 135.822 32.615C137.27 31.1715 138.418 29.4576 139.202 27.5713C139.985 25.685 140.389 23.6632 140.389 21.6214C140.383 21.5041 140.378 21.3921 140.373 21.2588Z" fill="#246CA7"/>
<path d="M124.8 10.2202H41.4018C43.8439 13.5214 45.1615 17.5161 45.1615 21.6187C45.1615 25.7213 43.8439 29.716 41.4018 33.0172H124.8C127.788 32.9527 130.631 31.7235 132.721 29.5929C134.812 27.4623 135.982 24.5998 135.982 21.6187C135.982 18.6376 134.812 15.7751 132.721 13.6445C130.631 11.5139 127.788 10.2847 124.8 10.2202Z" fill="url(#paint1_linear_2137_45837)"/>
<path d="M124.8 9.5271H40.8944C41.0761 9.74574 41.2472 9.96971 41.429 10.199H124.8C127.769 10.2019 130.621 11.3583 132.749 13.4231C134.878 15.4878 136.117 18.2984 136.203 21.2589C136.203 21.1469 136.203 21.0349 136.203 20.9229C136.203 17.9043 135.002 15.0089 132.865 12.8724C130.727 10.7359 127.826 9.53275 124.8 9.5271Z" fill="white"/>
<path d="M136.203 21.2588C136.123 24.223 134.886 27.039 132.757 29.1083C130.628 31.1776 127.773 32.3369 124.8 32.34H41.8997C41.7446 32.5693 41.5842 32.7933 41.4185 33.0172H124.8C127.83 33.0172 130.736 31.8166 132.879 29.6795C135.021 27.5423 136.225 24.6438 136.225 21.6214C136.219 21.5041 136.209 21.3974 136.203 21.2588Z" fill="#BBBCBF"/>
<g filter="url(#filter1_d_2137_45837)">
<path d="M31.9924 35.9492C39.9234 32.6074 43.6369 23.4851 40.2867 15.574C36.9365 7.66285 27.7913 3.95867 19.8603 7.30046C11.9293 10.6423 8.21586 19.7646 11.566 27.6757C14.9162 35.5868 24.0614 39.291 31.9924 35.9492Z" fill="url(#paint2_linear_2137_45837)"/>
</g>
<path d="M30.4974 32.4424C36.485 29.9231 39.2916 23.039 36.766 17.0664C34.2404 11.0937 27.339 8.2942 21.3514 10.8135C15.3637 13.3327 12.5572 20.2168 15.0828 26.1895C17.6084 32.1621 24.5097 34.9616 30.4974 32.4424Z" fill="url(#paint3_linear_2137_45837)"/>
<path d="M25.9252 32.6813C22.8616 32.6782 19.9202 31.4829 17.7267 29.3496C15.5332 27.2164 14.2607 24.3136 14.18 21.2588C14.18 21.3761 14.18 21.4828 14.18 21.6001C14.18 24.7115 15.4191 27.6956 17.6247 29.8957C19.8304 32.0958 22.8219 33.3319 25.9412 33.3319C29.0605 33.3319 32.052 32.0958 34.2576 29.8957C36.4633 27.6956 37.7024 24.7115 37.7024 21.6001C37.7024 21.4828 37.7024 21.3761 37.7024 21.2588C37.6215 24.3191 36.3446 27.2266 34.1442 29.3608C31.9438 31.4949 28.9942 32.6865 25.9252 32.6813Z" fill="#BBBCBF"/>
<path d="M25.9252 9.88416C22.8697 9.8869 19.9353 11.0756 17.7431 13.1986C15.5509 15.3216 14.273 18.2123 14.18 21.2587C14.18 21.1467 14.18 21.0347 14.18 20.9227C14.18 17.8112 15.4191 14.8272 17.6247 12.6271C19.8304 10.4269 22.8219 9.19092 25.9412 9.19092C29.0605 9.19092 32.052 10.4269 34.2576 12.6271C36.4633 14.8272 37.7024 17.8112 37.7024 20.9227C37.7024 21.0347 37.7024 21.1467 37.7024 21.2587C37.6092 18.2068 36.3269 15.3114 34.1278 13.1875C31.9287 11.0636 28.9861 9.87858 25.9252 9.88416Z" fill="white"/>
<path d="M24.2365 27.6152C24.0556 27.6154 23.8787 27.562 23.7282 27.4618C23.5777 27.3617 23.4603 27.2192 23.3911 27.0524C23.3218 26.8857 23.3037 26.7022 23.3391 26.5252C23.3744 26.3482 23.4616 26.1856 23.5897 26.0581L28.3743 21.2587L23.5897 16.4594C23.5047 16.3746 23.4373 16.274 23.3913 16.1633C23.3454 16.0526 23.3217 15.934 23.3217 15.8141C23.3217 15.6943 23.3454 15.5756 23.3913 15.4649C23.4373 15.3542 23.5047 15.2536 23.5897 15.1689C23.6746 15.0841 23.7754 15.0169 23.8864 14.9711C23.9974 14.9252 24.1164 14.9016 24.2365 14.9016C24.3567 14.9016 24.4756 14.9252 24.5866 14.9711C24.6976 15.0169 24.7984 15.0841 24.8834 15.1689L30.3149 20.6348C30.4841 20.7993 30.5819 21.0232 30.5876 21.2587C30.5882 21.3791 30.5644 21.4983 30.5175 21.6092C30.4706 21.7201 30.4017 21.8204 30.3149 21.904L24.8834 27.3486C24.7105 27.5176 24.4786 27.6132 24.2365 27.6152Z" fill="url(#paint4_linear_2137_45837)"/>
<path d="M57.9943 27H55.3445V25.1555H57.9048C58.5412 25.1555 59.0765 25.0429 59.5107 24.8175C59.9482 24.5888 60.2763 24.2358 60.495 23.7585C60.7171 23.2779 60.8281 22.6581 60.8281 21.8991C60.8281 21.1468 60.7171 20.532 60.495 20.0547C60.2763 19.5774 59.9498 19.2261 59.5156 19.0007C59.0814 18.7753 58.5462 18.6626 57.9098 18.6626H55.2997V16.8182H58.0241C59.0483 16.8182 59.9299 17.022 60.669 17.4297C61.4081 17.834 61.9766 18.4157 62.3743 19.1747C62.7753 19.9337 62.9759 20.8419 62.9759 21.8991C62.9759 22.9598 62.7753 23.8712 62.3743 24.6335C61.9766 25.3958 61.4048 25.9808 60.6591 26.3885C59.9167 26.7962 59.0284 27 57.9943 27ZM56.5376 16.8182V27H54.3849V16.8182H56.5376ZM52.973 22.2571V21.0043H57.9297V22.2571H52.973ZM66.3255 27H64.0186L67.5336 16.8182H70.3077L73.8176 27H71.5108L68.9604 19.1449H68.8809L66.3255 27ZM66.1813 22.9979H71.6301V24.6783H66.1813V22.9979ZM68.16 15.8338L69.214 13.5717H71.1728L69.6564 15.8338H68.16ZM83.5595 16.8182V27H81.7001L77.2704 20.5916H77.1958V27H75.0431V16.8182H76.9324L81.3272 23.2216H81.4167V16.8182H83.5595ZM85.3381 27V16.8182H87.4908V21.0192H91.8608V16.8182H94.0085V27H91.8608V22.794H87.4908V27H85.3381ZM105.775 20.1094C105.705 19.8674 105.608 19.6536 105.482 19.468C105.356 19.2791 105.202 19.12 105.019 18.9908C104.84 18.8582 104.635 18.7571 104.403 18.6875C104.174 18.6179 103.921 18.5831 103.642 18.5831C103.122 18.5831 102.664 18.7124 102.27 18.9709C101.879 19.2294 101.574 19.6056 101.355 20.0994C101.137 20.59 101.027 21.1899 101.027 21.8991C101.027 22.6084 101.135 23.2116 101.35 23.7088C101.566 24.206 101.871 24.5855 102.265 24.8473C102.66 25.1058 103.125 25.2351 103.662 25.2351C104.149 25.2351 104.565 25.1489 104.91 24.9766C105.258 24.8009 105.523 24.554 105.705 24.2358C105.891 23.9176 105.984 23.5414 105.984 23.1072L106.421 23.1719H103.796V21.5511H108.057V22.8338C108.057 23.7287 107.868 24.4976 107.49 25.1406C107.112 25.7803 106.592 26.2741 105.929 26.6222C105.266 26.9669 104.507 27.1392 103.652 27.1392C102.698 27.1392 101.859 26.9287 101.137 26.5078C100.414 26.0836 99.8506 25.482 99.4462 24.7031C99.0452 23.9209 98.8446 22.9929 98.8446 21.919C98.8446 21.0937 98.964 20.358 99.2026 19.7116C99.4445 19.062 99.7826 18.5118 100.217 18.0611C100.651 17.6103 101.156 17.2673 101.733 17.032C102.31 16.7966 102.935 16.679 103.607 16.679C104.184 16.679 104.721 16.7635 105.218 16.9325C105.715 17.0982 106.156 17.3336 106.541 17.6385C106.928 17.9434 107.245 18.3063 107.49 18.7273C107.735 19.1449 107.893 19.6056 107.963 20.1094H105.775ZM111.827 16.8182V27H109.674V16.8182H111.827ZM115.353 27H113.046L116.561 16.8182H119.335L122.845 27H120.538L117.988 19.1449H117.908L115.353 27ZM115.209 22.9979H120.657V24.6783H115.209V22.9979ZM117.187 15.8338L118.241 13.5717H120.2L118.684 15.8338H117.187Z" fill="#486AB0"/>
<defs>
<filter id="filter0_d_2137_45837" x="27.2159" y="1.0686" width="123.461" height="51.0999" filterUnits="userSpaceOnUse" color-interpolation-filters="sRGB">
<feFlood flood-opacity="0" result="BackgroundImageFix"/>
<feColorMatrix in="SourceAlpha" type="matrix" values="0 0 0 0 0 0 0 0 0 0 0 0 0 0 0 0 0 0 127 0" result="hardAlpha"/>
<feOffset dy="5"/>
<feGaussianBlur stdDeviation="5"/>
<feComposite in2="hardAlpha" operator="out"/>
<feColorMatrix type="matrix" values="0 0 0 0 0.054902 0 0 0 0 0.14902 0 0 0 0 0.286275 0 0 0 0.25 0"/>
<feBlend mode="normal" in2="BackgroundImageFix" result="effect1_dropShadow_2137_45837"/>
<feBlend mode="normal" in="SourceGraphic" in2="effect1_dropShadow_2137_45837" result="shape"/>
</filter>
<filter id="filter1_d_2137_45837" x="0.233374" y="0.9708" width="51.386" height="51.3079" filterUnits="userSpaceOnUse" color-interpolation-filters="sRGB">
<feFlood flood-opacity="0" result="BackgroundImageFix"/>
<feColorMatrix in="SourceAlpha" type="matrix" values="0 0 0 0 0 0 0 0 0 0 0 0 0 0 0 0 0 0 127 0" result="hardAlpha"/>
<feOffset dy="5"/>
<feGaussianBlur stdDeviation="5.05"/>
<feComposite in2="hardAlpha" operator="out"/>
<feColorMatrix type="matrix" values="0 0 0 0 0.0539063 0 0 0 0 0.147344 0 0 0 0 0.2875 0 0 0 0.25 0"/>
<feBlend mode="normal" in2="BackgroundImageFix" result="effect1_dropShadow_2137_45837"/>
<feBlend mode="normal" in="SourceGraphic" in2="effect1_dropShadow_2137_45837" result="shape"/>
</filter>
<linearGradient id="paint0_linear_2137_45837" x1="88.7995" y1="37.1658" x2="88.7995" y2="6.07127" gradientUnits="userSpaceOnUse">
<stop stop-color="#006FE4"/>
<stop offset="1" stop-color="#03B0F3"/>
</linearGradient>
<linearGradient id="paint1_linear_2137_45837" x1="88.821" y1="33.0172" x2="88.821" y2="10.2202" gradientUnits="userSpaceOnUse">
<stop stop-color="#E9E9E9"/>
<stop offset="1" stop-color="white"/>
</linearGradient>
<linearGradient id="paint2_linear_2137_45837" x1="25.9254" y1="37.1672" x2="25.9254" y2="6.07264" gradientUnits="userSpaceOnUse">
<stop stop-color="#0173E5"/>
<stop offset="1" stop-color="#61CCF8"/>
</linearGradient>
<linearGradient id="paint3_linear_2137_45837" x1="25.9266" y1="33.3553" x2="25.9266" y2="9.88639" gradientUnits="userSpaceOnUse">
<stop stop-color="#E5E5E5"/>
<stop offset="1" stop-color="white"/>
</linearGradient>
<linearGradient id="paint4_linear_2137_45837" x1="20.8685" y1="24.6396" x2="27.5823" y2="17.909" gradientUnits="userSpaceOnUse">
<stop stop-color="#323B8C"/>
<stop offset="1" stop-color="#65A8DF"/>
</linearGradient>
</defs>
</svg>
