<svg width="374" height="218" viewBox="0 0 374 218" fill="none" xmlns="http://www.w3.org/2000/svg">
<path d="M21.0004 10.6699V179.771C20.976 182.379 22.1015 184.894 24.1442 186.798C26.187 188.702 28.9906 189.848 31.9753 190H344.327C347.392 189.898 350.299 188.788 352.464 186.894C354.63 184.999 355.893 182.461 356 179.788V10.6864C355.878 8.06607 354.591 5.59007 352.413 3.78231C350.234 1.97456 347.334 0.976881 344.327 1.00041H31.9942C29.0714 1.02637 26.2781 2.05605 24.2201 3.86616C22.162 5.67628 21.0052 8.1209 21.0004 10.6699Z" fill="url(#paint0_linear_10_463)"/>
<path d="M20 9.64959V179.284C20 180.56 20.2868 181.824 20.8441 183.002C21.4013 184.181 22.2181 185.252 23.2478 186.154C24.2775 187.057 25.4999 187.772 26.8453 188.26C28.1906 188.749 29.6326 189 31.0888 189H342.911C345.849 189 348.667 187.979 350.746 186.16C352.825 184.342 353.995 181.875 354 179.301V9.66609C353.985 7.09794 352.81 4.63944 350.732 2.82811C348.654 1.01677 345.842 -3.33119e-05 342.911 8.18519e-10H31.07C28.1453 0.0042915 25.341 1.02075 23.2677 2.82806C21.1943 4.63537 20.0199 7.08717 20 9.64959Z" fill="url(#paint1_radial_10_463)"/>
<path d="M20 9.7517V181.182C20 182.471 20.2868 183.748 20.8441 184.939C21.4013 186.13 22.2181 187.213 23.2478 188.124C24.2775 189.036 25.4999 189.759 26.8453 190.253C28.1906 190.746 29.6326 191 31.0888 191H342.911C345.849 191 348.667 189.968 350.746 188.13C352.825 186.292 353.995 183.799 354 181.198V9.76837C353.985 7.17305 352.81 4.68854 350.732 2.85803C348.654 1.02753 345.842 -3.36644e-05 342.911 8.27181e-10H31.07C28.1453 0.00433691 25.341 1.03156 23.2677 2.85799C21.1943 4.68442 20.0199 7.16216 20 9.7517Z" fill="url(#paint2_radial_10_463)"/>
<path style="mix-blend-mode:screen" d="M354.091 46.1935C350.324 45.0668 346.557 43.8838 342.677 42.5506C232.212 5.23884 134.065 14.7968 57.4453 57.817V71.1681C70.7803 65.9666 173.486 28.5235 290.562 62.5866C315.198 69.7598 339.683 87.5424 354.091 100.142V46.1935Z" fill="url(#paint3_linear_10_463)"/>
<path style="mix-blend-mode:screen" d="M354.091 54.0624C316.271 63.3387 270.634 62.4373 216.598 42.1948C60.27 -16.336 37.5742 36.8618 37.5742 36.8618V64.4841C38.2899 47.753 71.7403 28.1677 163.484 64.1274C229.405 89.9846 297.21 92.5571 354.147 74.8495L354.091 54.0624Z" fill="url(#paint4_linear_10_463)"/>
<path style="mix-blend-mode:screen" d="M354.094 23.285C276.872 57.536 179.459 98.5094 65.0762 9.37061V93.6459C65.0762 93.6459 151 149.829 267.191 119.653C305.651 109.682 330.042 88.4444 354.094 66.493V23.285Z" fill="url(#paint5_linear_10_463)"/>
<mask id="mask0_10_463" style="mask-type:luminance" maskUnits="userSpaceOnUse" x="19" y="0" width="336" height="189">
<path d="M19.9082 9.64959V179.284C19.9082 180.56 20.1952 181.824 20.7527 183.002C21.3102 184.181 22.1273 185.252 23.1574 186.154C24.1876 187.057 25.4105 187.772 26.7565 188.26C28.1024 188.749 29.545 189 31.0018 189H342.96C345.899 189 348.718 187.979 350.798 186.16C352.878 184.342 354.049 181.875 354.054 179.301V9.66609C354.039 7.10365 352.869 4.65011 350.798 2.83972C348.728 1.02932 345.924 0.00866794 342.998 0H31.0207C28.0912 0.00420888 25.2817 1.01961 23.2015 2.82601C21.1212 4.6324 19.9379 7.08415 19.9082 9.64959Z" fill="white"/>
</mask>
<g mask="url(#mask0_10_463)">
<g style="mix-blend-mode:overlay">
<path style="mix-blend-mode:screen" d="M73.5501 189.512C73.5501 189.512 138.793 184.068 205.619 112.876C262.386 52.4381 268.941 -0.0491028 268.941 -0.0491028H0.0195312V189.512H73.5501Z" fill="url(#paint6_linear_10_463)"/>
</g>
</g>
<defs>
<linearGradient id="paint0_linear_10_463" x1="20.9627" y1="95.5249" x2="356.113" y2="95.5249" gradientUnits="userSpaceOnUse">
<stop/>
<stop offset="0.24" stop-color="#2B2B2B"/>
<stop offset="0.6" stop-color="#7D7D7D"/>
<stop offset="1" stop-color="#3B3B3B"/>
</linearGradient>
<radialGradient id="paint1_radial_10_463" cx="0" cy="0" r="1" gradientUnits="userSpaceOnUse" gradientTransform="translate(184.016 90.2278) scale(294.653 258.164)">
<stop stop-color="#3D3D3D"/>
<stop offset="0.71"/>
</radialGradient>
<radialGradient id="paint2_radial_10_463" cx="0" cy="0" r="1" gradientUnits="userSpaceOnUse" gradientTransform="translate(184.016 91.1826) scale(294.653 260.896)">
<stop stop-color="#3D3D3D"/>
<stop offset="0.71"/>
</radialGradient>
<linearGradient id="paint3_linear_10_463" x1="57.4453" y1="59.7136" x2="278.658" y2="59.7136" gradientUnits="userSpaceOnUse">
<stop offset="0.07"/>
<stop offset="0.73" stop-color="#333333"/>
<stop offset="1"/>
</linearGradient>
<linearGradient id="paint4_linear_10_463" x1="37.5177" y1="50.4758" x2="273.573" y2="50.4758" gradientUnits="userSpaceOnUse">
<stop offset="0.08"/>
<stop offset="0.47" stop-color="#333333"/>
<stop offset="1"/>
</linearGradient>
<linearGradient id="paint5_linear_10_463" x1="65.0762" y1="68.9529" x2="280.601" y2="68.9529" gradientUnits="userSpaceOnUse">
<stop offset="0.02"/>
<stop offset="0.38" stop-color="#232323"/>
<stop offset="0.52" stop-color="#292929"/>
<stop offset="0.78" stop-color="#161616"/>
<stop offset="1"/>
</linearGradient>
<linearGradient id="paint6_linear_10_463" x1="25.936" y1="16.4294" x2="181.268" y2="162.535" gradientUnits="userSpaceOnUse">
<stop/>
<stop offset="0.68" stop-color="#111111"/>
<stop offset="1" stop-color="#131313"/>
</linearGradient>
</defs>
</svg>
