<svg width="32" height="32" viewBox="0 0 32 32" fill="none" xmlns="http://www.w3.org/2000/svg">
<path d="M12.667 18.3333C12.667 19.6266 13.667 20.6666 14.8937 20.6666H17.4003C18.467 20.6666 19.3337 19.76 19.3337 18.6266C19.3337 17.4133 18.8003 16.9733 18.0137 16.6933L14.0003 15.2933C13.2137 15.0133 12.6803 14.5866 12.6803 13.36C12.6803 12.2399 13.547 11.3199 14.6137 11.3199H17.1203C18.347 11.3199 19.347 12.3599 19.347 13.6533" stroke="#2148DC" stroke-width="2" stroke-linecap="round" stroke-linejoin="round"/>
<path d="M16 10V22" stroke="#2148DC" stroke-width="2" stroke-linecap="round" stroke-linejoin="round"/>
<path d="M29.3337 16C29.3337 23.36 23.3603 29.3333 16.0003 29.3333C8.64033 29.3333 2.66699 23.36 2.66699 16C2.66699 8.63996 8.64033 2.66663 16.0003 2.66663" stroke="#2148DC" stroke-width="2" stroke-linecap="round" stroke-linejoin="round"/>
<path d="M29.3333 7.99996L29.3333 2.66663L24 2.66663" stroke="#2148DC" stroke-width="2" stroke-linecap="round" stroke-linejoin="round"/>
<path d="M22.667 9.33329L29.3337 2.66663" stroke="#2148DC" stroke-width="2" stroke-linecap="round" stroke-linejoin="round"/>
</svg>
