<svg width="24" height="24" viewBox="0 0 24 24" fill="none" xmlns="http://www.w3.org/2000/svg">
<g clip-path="url(#clip0_3089_67703)">
<rect width="24" height="24" rx="12" fill="white"/>
<g clip-path="url(#clip1_3089_67703)">
<path d="M3.68572 5.02832H17.4001C17.7788 5.02832 18.0859 5.33535 18.0859 5.71404V24.2285C18.0859 24.6072 17.7788 24.9142 17.4001 24.9142H3.68572C3.30703 24.9142 3 24.6072 3 24.2285V5.71404C3 5.33535 3.30703 5.02832 3.68572 5.02832Z" fill="#57B7EB"/>
<path d="M11.5715 22.1713C8.16318 22.1713 5.40002 19.4082 5.40002 15.9999V5.02832H3.68572C3.30703 5.02832 3 5.33535 3 5.71404V24.2285C3 24.6072 3.30703 24.9142 3.68572 24.9142H17.4001C17.7788 24.9142 18.0859 24.6072 18.0859 24.2285V22.1713H11.5715Z" fill="#4891D3"/>
<path d="M6.08594 7.08545H15.0003V8.45689H6.08594V7.08545Z" fill="#F9E109"/>
<path d="M13.9715 10.1713H7.11429C7.02336 10.1713 6.93615 10.1352 6.87185 10.0709C6.80755 10.0066 6.77143 9.91939 6.77143 9.82846C6.77143 9.73752 6.80755 9.65032 6.87185 9.58602C6.93615 9.52172 7.02336 9.4856 7.11429 9.4856H13.9715C14.0624 9.4856 14.1496 9.52172 14.2139 9.58602C14.2782 9.65032 14.3144 9.73752 14.3144 9.82846C14.3144 9.91939 14.2782 10.0066 14.2139 10.0709C14.1496 10.1352 14.0624 10.1713 13.9715 10.1713ZM16.0287 12.5713H8.48573C8.3948 12.5713 8.30759 12.5352 8.2433 12.4709C8.179 12.4066 8.14287 12.3194 8.14287 12.2285C8.14287 12.1375 8.179 12.0503 8.2433 11.986C8.30759 11.9217 8.3948 11.8856 8.48573 11.8856H16.0287C16.1196 11.8856 16.2068 11.9217 16.2711 11.986C16.3354 12.0503 16.3715 12.1375 16.3715 12.2285C16.3715 12.3194 16.3354 12.4066 16.2711 12.4709C16.2068 12.5352 16.1196 12.5713 16.0287 12.5713ZM12.2572 14.6285H5.39999C5.30906 14.6285 5.22185 14.5924 5.15755 14.5281C5.09325 14.4638 5.05713 14.3766 5.05713 14.2856C5.05713 14.1947 5.09325 14.1075 5.15755 14.0432C5.22185 13.9789 5.30906 13.9428 5.39999 13.9428H12.2572C12.3481 13.9428 12.4353 13.9789 12.4996 14.0432C12.5639 14.1075 12.6001 14.1947 12.6001 14.2856C12.6001 14.3766 12.5639 14.4638 12.4996 14.5281C12.4353 14.5924 12.3481 14.6285 12.2572 14.6285ZM16.0287 14.6285H13.6286C13.5377 14.6285 13.4505 14.5924 13.3862 14.5281C13.3219 14.4638 13.2858 14.3766 13.2858 14.2856C13.2858 14.1947 13.3219 14.1075 13.3862 14.0432C13.4505 13.9789 13.5377 13.9428 13.6286 13.9428H16.0287C16.1196 13.9428 16.2068 13.9789 16.2711 14.0432C16.3354 14.1075 16.3715 14.1947 16.3715 14.2856C16.3715 14.3766 16.3354 14.4638 16.2711 14.5281C16.2068 14.5924 16.1196 14.6285 16.0287 14.6285ZM8.82859 16.3428H5.39999C5.30906 16.3428 5.22185 16.3067 5.15755 16.2424C5.09325 16.1781 5.05713 16.0909 5.05713 15.9999C5.05713 15.909 5.09325 15.8218 5.15755 15.7575C5.22185 15.6932 5.30906 15.6571 5.39999 15.6571H8.82859C8.91953 15.6571 9.00674 15.6932 9.07103 15.7575C9.13533 15.8218 9.17146 15.909 9.17146 15.9999C9.17146 16.0909 9.13533 16.1781 9.07103 16.2424C9.00674 16.3067 8.91953 16.3428 8.82859 16.3428ZM12.6001 16.3428H10.2C10.1091 16.3428 10.0219 16.3067 9.9576 16.2424C9.8933 16.1781 9.85718 16.0909 9.85718 15.9999C9.85718 15.909 9.8933 15.8218 9.9576 15.7575C10.0219 15.6932 10.1091 15.6571 10.2 15.6571H12.6001C12.691 15.6571 12.7782 15.6932 12.8425 15.7575C12.9068 15.8218 12.9429 15.909 12.9429 15.9999C12.9429 16.0909 12.9068 16.1781 12.8425 16.2424C12.7782 16.3067 12.691 16.3428 12.6001 16.3428Z" fill="#39519D"/>
<path d="M15.0003 8.45689H6.08594V7.08545L15.0003 8.45689Z" fill="#FCBC04"/>
<path d="M9.51449 20.9714C9.51449 22.3915 8.36321 23.5428 6.94304 23.5428C5.52286 23.5428 4.37158 22.3915 4.37158 20.9714C4.37158 19.5512 5.52286 18.3999 6.94304 18.3999C8.36321 18.3999 9.51449 19.5512 9.51449 20.9714Z" fill="#F9E109"/>
<path d="M6.94307 23.5428C8.05651 23.5424 9.04327 22.8256 9.38767 21.7667C7.87864 21.1942 6.65399 20.0532 5.97625 18.5884C4.83602 19.0509 4.18326 20.2563 4.41898 21.4638C4.65456 22.6714 5.71276 23.5429 6.94307 23.5428Z" fill="#FCBC04"/>
<path d="M11.2286 22.5142C11.1913 22.5155 11.1541 22.5096 11.119 22.497C10.9405 22.4369 10.8441 22.2438 10.9028 22.0651L11.7463 19.5348C11.7963 19.385 11.8966 19.2571 12.03 19.1726C12.1635 19.0882 12.322 19.0524 12.4788 19.0714C12.6356 19.0903 12.7811 19.1628 12.8906 19.2765C13.0002 19.3903 13.0671 19.5384 13.08 19.6958L13.1967 21.0673L13.3201 20.8582C13.3844 20.7461 13.4789 20.6545 13.593 20.5938C13.707 20.5332 13.8358 20.506 13.9647 20.5153C14.0915 20.5259 14.2129 20.5716 14.3152 20.6473C14.4176 20.723 14.4968 20.8257 14.5441 20.9439L14.7635 21.4857L15.7613 20.217C15.7894 20.1815 15.8241 20.152 15.8636 20.13C15.9031 20.108 15.9466 20.094 15.9915 20.0889C16.0364 20.0838 16.0819 20.0877 16.1254 20.1002C16.1688 20.1128 16.2093 20.1338 16.2446 20.1621C16.3153 20.2187 16.3607 20.3009 16.371 20.3908C16.3813 20.4808 16.3556 20.5711 16.2995 20.6422L15.2984 21.9142C15.1457 22.1049 14.9033 22.2 14.6617 22.164C14.4201 22.128 14.2161 21.9663 14.1259 21.7393L13.9133 21.201L13.7864 21.4102C13.7135 21.5339 13.6037 21.6317 13.4724 21.6897C13.341 21.7477 13.1948 21.763 13.0543 21.7334C12.9138 21.7039 12.7861 21.631 12.6892 21.5251C12.5923 21.4191 12.5312 21.2854 12.5144 21.1428L12.3978 19.7508L11.5715 22.2673C11.5501 22.3408 11.5047 22.4051 11.4426 22.4498C11.3805 22.4946 11.3051 22.5172 11.2286 22.5142ZM6.85381 21.945C6.67271 21.9452 6.4989 21.8737 6.37033 21.7461L5.64343 21.0193C5.61129 20.9874 5.58578 20.9495 5.56837 20.9077C5.55096 20.8659 5.54199 20.8211 5.54199 20.7758C5.54199 20.7306 5.55096 20.6858 5.56837 20.644C5.58578 20.6022 5.61129 20.5643 5.64343 20.5324C5.70768 20.4686 5.79457 20.4328 5.88514 20.4328C5.97572 20.4328 6.06261 20.4686 6.12686 20.5324L6.85381 21.2593L8.06737 20.0491C8.13298 19.9929 8.21737 19.9635 8.30368 19.9669C8.38999 19.9702 8.47187 20.0059 8.53297 20.067C8.59402 20.1281 8.62977 20.2099 8.63309 20.2962C8.63642 20.3825 8.60706 20.4668 8.55089 20.5324L7.34063 21.7461C7.27655 21.8097 7.20056 21.86 7.11702 21.8941C7.03347 21.9282 6.94406 21.9455 6.85381 21.945Z" fill="#39519D"/>
<path d="M19.9393 11.6887L21.7208 12.7173L18.6351 18.0621L16.8535 17.0335L19.9393 11.6887Z" fill="#FCBC04"/>
<path d="M18.463 14.2444L16.8516 17.0285L18.6344 18.057L19.1556 17.1485C18.7691 16.2243 18.5352 15.2435 18.463 14.2444Z" fill="#E59730"/>
<path d="M18.6343 18.064L16.8514 17.0354L16.1211 18.9863L17.3074 19.672L18.6343 18.064Z" fill="#A1D51C"/>
<path d="M16.1742 19.0483L17.3673 19.7341L17.0245 20.3306C16.8351 20.66 16.4146 20.7737 16.0851 20.5844C15.7557 20.395 15.642 19.9743 15.8313 19.6448L16.1742 19.0483Z" fill="#E59730"/>
<path d="M20.9651 9.90845L22.7467 10.937L21.7181 12.7186L19.9365 11.69L20.9651 9.90845Z" fill="#FCBC04"/>
<path d="M22.5417 9.23537C22.8697 9.42472 22.982 9.84408 22.7927 10.1721L22.4498 10.7659L21.2622 10.0801L21.6051 9.48635C21.7944 9.15836 22.2137 9.04586 22.5417 9.23537Z" fill="#C4F236"/>
<path d="M19.4712 12.5035L19.8141 11.9097L21.5956 12.9382L21.2528 13.5321L19.4712 12.5035Z" fill="#E59730"/>
<path d="M21.192 16.7163C21.1319 16.7168 21.0728 16.7015 21.0205 16.6718C20.9815 16.6491 20.9474 16.619 20.9201 16.583C20.8928 16.5471 20.8728 16.5062 20.8614 16.4625C20.8498 16.4189 20.8471 16.3734 20.8532 16.3287C20.8594 16.284 20.8743 16.241 20.8972 16.2021L22.2686 13.8259C22.2912 13.7869 22.3058 13.7438 22.3117 13.6991C22.3175 13.6544 22.3145 13.609 22.3027 13.5655C22.2911 13.5217 22.2708 13.4807 22.2432 13.4448C22.2156 13.4089 22.1811 13.3788 22.1417 13.3564L19.1725 11.6421C19.0941 11.5968 19.0368 11.5223 19.013 11.435C18.9892 11.3476 19.001 11.2544 19.0456 11.1757C19.068 11.1364 19.098 11.102 19.1338 11.0743C19.1696 11.0467 19.2105 11.0264 19.2542 11.0146C19.2978 11.0028 19.3434 10.9997 19.3882 11.0056C19.433 11.0115 19.4762 11.0262 19.5153 11.0489L22.4846 12.7632C22.6017 12.8306 22.7045 12.9205 22.7868 13.0277C22.8692 13.1349 22.9297 13.2572 22.9647 13.3878C22.9997 13.5183 23.0087 13.6545 22.991 13.7885C22.9733 13.9226 22.9294 14.0518 22.8617 14.1688L21.4903 16.5449C21.4601 16.5972 21.4166 16.6406 21.3642 16.6707C21.3118 16.7008 21.2524 16.7165 21.192 16.7163L21.192 16.7163Z" fill="#39519D"/>
<path d="M22.2001 9.48554C22.2018 9.3697 22.218 9.25453 22.2482 9.14268C22.1199 9.134 21.9918 9.16154 21.8784 9.22216C21.7651 9.28278 21.671 9.37405 21.607 9.48554L21.2642 10.0787L22.4504 10.7644L22.6218 10.4696C22.4882 10.343 22.3819 10.1903 22.3094 10.0211C22.2368 9.8519 22.1997 9.66964 22.2001 9.48554Z" fill="#A1D51C"/>
</g>
</g>
<defs>
<clipPath id="clip0_3089_67703">
<rect width="24" height="24" rx="12" fill="white"/>
</clipPath>
<clipPath id="clip1_3089_67703">
<rect width="20" height="20" fill="white" transform="translate(3 5)"/>
</clipPath>
</defs>
</svg>
