<svg width="70" height="70" viewBox="0 0 70 70" fill="none" xmlns="http://www.w3.org/2000/svg">
<g clip-path="url(#clip0_2864_16622)">
<rect width="70" height="70" rx="35" fill="url(#paint0_radial_2864_16622)" fill-opacity="0.8"/>
<g filter="url(#filter0_dd_2864_16622)">
<path d="M64.0349 37.1844C64.1276 39.3996 63.3378 41.5611 61.8389 43.1947C60.3399 44.8284 58.2541 45.8007 56.0392 45.8984C55.9096 45.9045 55.7803 45.9075 55.6513 45.9075C55.0628 45.9071 54.476 45.8434 53.9011 45.7175C52.1953 48.3513 49.9585 50.6 47.3339 52.3198C44.7093 54.0397 41.7546 55.1928 38.6589 55.7054C38.2927 56.7811 37.5622 57.6951 36.5936 58.2893C35.6251 58.8836 34.4793 59.1207 33.3545 58.9598C32.2296 58.7989 31.1963 58.2501 30.4332 57.4081C29.6701 56.5662 29.2251 55.484 29.1752 54.3488C29.1253 53.2136 29.4736 52.0966 30.1599 51.1909C30.8462 50.2853 31.8273 49.6479 32.9337 49.3889C34.0401 49.1299 35.2023 49.2656 36.2192 49.7725C37.2362 50.2795 38.0441 51.1259 38.5032 52.1653C42.8616 51.3592 46.799 49.0493 49.6291 45.6382C52.4592 42.227 54.0025 37.9309 53.9901 33.4986C53.9901 23.0273 45.4712 14.5084 34.9999 14.5084C24.5286 14.5084 16.0097 23.0273 16.0097 33.4986C16.0091 36.7365 16.8366 39.9207 18.4135 42.7487C18.467 42.842 18.5071 42.9423 18.5327 43.0468C18.685 43.4702 18.6688 43.9359 18.4872 44.3476C18.3057 44.7592 17.9729 45.0854 17.5576 45.2585C16.5407 45.6864 15.4485 45.9068 14.3453 45.9066C14.2154 45.9066 14.0853 45.9036 13.9549 45.8976C11.7409 45.7986 9.65642 44.8257 8.15864 43.1922C6.66085 41.5587 5.87196 39.3979 5.96495 37.1836C6.00233 36.3006 5.98147 35.5127 5.96108 34.7509C5.9421 34.0336 5.92229 33.2918 5.95487 32.5177C6.0521 30.3557 6.98213 28.3151 8.55017 26.8234C10.1182 25.3317 12.2026 24.5046 14.3668 24.5154C17.8421 16.5639 25.7819 10.9927 34.9999 10.9927C44.2179 10.9927 52.1578 16.5639 55.6331 24.5155C57.7975 24.5031 59.8826 25.3295 61.4509 26.8212C63.0192 28.313 63.9489 30.3541 64.0448 32.5164C64.0775 33.2916 64.0578 34.0333 64.0386 34.7506C64.0185 35.5126 63.9975 36.3008 64.0349 37.1844ZM49.7427 33.4986C49.7418 35.7572 49.2222 37.9854 48.224 40.0115C47.2257 42.0375 45.7755 43.8072 43.9851 45.1841C42.1947 46.561 40.112 47.5083 37.8976 47.9529C35.6832 48.3975 33.3962 48.3276 31.2131 47.7486L25.2458 51.1947C24.9447 51.3686 24.5988 51.4493 24.2519 51.4266C23.9049 51.4039 23.5725 51.2788 23.2967 51.0671C23.0208 50.8554 22.8139 50.5667 22.7022 50.2375C22.5904 49.9083 22.5788 49.5533 22.6689 49.2174L24.1939 43.5282C21.6683 40.7983 20.263 37.2176 20.2577 33.4986C20.2577 25.3672 26.8707 18.7524 34.9999 18.7524C43.1291 18.7524 49.7427 25.3672 49.7427 33.4986ZM30.9013 33.4986C30.9013 33.0324 30.7161 32.5853 30.3864 32.2556C30.0568 31.926 29.6097 31.7408 29.1435 31.7408H29.1405C28.793 31.7414 28.4535 31.8451 28.1648 32.0386C27.8762 32.2322 27.6514 32.5069 27.5189 32.8282C27.3863 33.1494 27.352 33.5028 27.4202 33.8435C27.4884 34.1843 27.656 34.4972 27.902 34.7427C28.148 34.9882 28.4612 35.1553 28.8021 35.2229C29.143 35.2904 29.4963 35.2554 29.8173 35.1223C30.1383 34.9891 30.4126 34.7638 30.6056 34.4748C30.7986 34.1858 30.9016 33.8461 30.9016 33.4986H30.9013ZM36.7581 33.4986C36.7579 33.4411 36.7548 33.3836 36.7487 33.3263C36.7432 33.2689 36.7346 33.2118 36.723 33.1552C36.7125 33.0989 36.6984 33.0433 36.6807 32.9888C36.6644 32.9338 36.6445 32.8798 36.6234 32.8259C36.6023 32.772 36.5766 32.7216 36.5496 32.6713C36.5228 32.6206 36.4935 32.5713 36.4617 32.5236C36.4297 32.4754 36.3952 32.4289 36.3585 32.3841C36.3223 32.3393 36.2837 32.2967 36.2426 32.2564C36.2027 32.2154 36.1594 32.1767 36.1148 32.1392C36.0702 32.1041 36.0233 32.0689 35.9753 32.0373C35.9276 32.0055 35.8784 31.9762 35.8277 31.9494C35.7772 31.9224 35.7246 31.8978 35.6717 31.8756C35.619 31.8535 35.565 31.8343 35.5101 31.8181C35.4005 31.7829 35.2873 31.7601 35.1726 31.7502C35.0005 31.7336 34.8268 31.7419 34.657 31.7748C34.6005 31.7863 34.5446 31.8008 34.4896 31.8181C34.4346 31.8342 34.3806 31.8534 34.3278 31.8756C34.2751 31.8978 34.2224 31.9224 34.172 31.9494C34.1216 31.9763 34.0724 32.0056 34.0242 32.0373C33.928 32.1011 33.8385 32.1745 33.7571 32.2564C33.716 32.2967 33.6772 32.3394 33.641 32.3841C33.6047 32.4289 33.5707 32.4754 33.5392 32.5236C33.507 32.5713 33.4772 32.6205 33.4501 32.6713C33.4231 32.7215 33.3988 32.7731 33.3773 32.8259C33.3551 32.8792 33.3355 32.9336 33.3187 32.9888C33.3025 33.0427 33.2884 33.099 33.2767 33.1552C33.2651 33.2118 33.2564 33.2689 33.2508 33.3263C33.245 33.3838 33.2426 33.4412 33.2426 33.4986C33.2426 33.556 33.245 33.6146 33.2508 33.672C33.2565 33.7291 33.2652 33.7858 33.2767 33.842C33.2884 33.8982 33.3025 33.9545 33.3187 34.0095C33.3355 34.0644 33.3551 34.1184 33.3773 34.1713C33.3988 34.2245 33.4231 34.2765 33.4501 34.3271C33.4769 34.3775 33.5075 34.4267 33.5392 34.4748C33.5707 34.5226 33.6047 34.5687 33.641 34.6131C33.6775 34.6579 33.7163 34.701 33.7571 34.742C33.7982 34.7818 33.8403 34.8216 33.886 34.858C33.9301 34.8946 33.9762 34.9286 34.0242 34.9599C34.0724 34.9916 34.1215 35.022 34.172 35.049C34.2738 35.102 34.38 35.146 34.4896 35.1802C34.5445 35.1966 34.6008 35.2107 34.657 35.2224C34.77 35.2455 34.8851 35.2569 35.0004 35.2564C35.466 35.2552 35.9124 35.0703 36.2426 34.742C36.3236 34.6597 36.3969 34.5703 36.4617 34.4748C36.4933 34.4267 36.5226 34.3775 36.5496 34.3271C36.5766 34.2767 36.6012 34.224 36.6234 34.1713C36.6457 34.1185 36.6644 34.0634 36.6807 34.0095C36.6983 33.9546 36.7124 33.8986 36.723 33.842C36.7345 33.7858 36.7431 33.7291 36.7487 33.672C36.7547 33.6143 36.7577 33.5564 36.7577 33.4984L36.7581 33.4986ZM42.6174 33.4986C42.6174 33.0324 42.4323 32.5853 42.1026 32.2556C41.7729 31.926 41.3258 31.7408 40.8596 31.7408H40.8562C40.5087 31.7415 40.1692 31.8451 39.8806 32.0387C39.592 32.2322 39.3672 32.507 39.2347 32.8283C39.1021 33.1495 39.0678 33.5029 39.136 33.8436C39.2042 34.1844 39.3719 34.4973 39.6179 34.7428C39.8638 34.9882 40.1771 35.1553 40.518 35.2229C40.8588 35.2904 41.2121 35.2554 41.5331 35.1223C41.8541 34.9891 42.1284 34.7638 42.3214 34.4748C42.5144 34.1858 42.6174 33.8461 42.6174 33.4986Z" fill="url(#paint1_linear_2864_16622)"/>
</g>
</g>
<defs>
<filter id="filter0_dd_2864_16622" x="-1" y="3" width="72" height="72" filterUnits="userSpaceOnUse" color-interpolation-filters="sRGB">
<feFlood flood-opacity="0" result="BackgroundImageFix"/>
<feColorMatrix in="SourceAlpha" type="matrix" values="0 0 0 0 0 0 0 0 0 0 0 0 0 0 0 0 0 0 127 0" result="hardAlpha"/>
<feMorphology radius="2" operator="erode" in="SourceAlpha" result="effect1_dropShadow_2864_16622"/>
<feOffset dy="2"/>
<feGaussianBlur stdDeviation="2"/>
<feColorMatrix type="matrix" values="0 0 0 0 0.0627451 0 0 0 0 0.0941176 0 0 0 0 0.156863 0 0 0 0.06 0"/>
<feBlend mode="normal" in2="BackgroundImageFix" result="effect1_dropShadow_2864_16622"/>
<feColorMatrix in="SourceAlpha" type="matrix" values="0 0 0 0 0 0 0 0 0 0 0 0 0 0 0 0 0 0 127 0" result="hardAlpha"/>
<feMorphology radius="2" operator="erode" in="SourceAlpha" result="effect2_dropShadow_2864_16622"/>
<feOffset dy="4"/>
<feGaussianBlur stdDeviation="4"/>
<feColorMatrix type="matrix" values="0 0 0 0 0.0627451 0 0 0 0 0.0941176 0 0 0 0 0.156863 0 0 0 0.1 0"/>
<feBlend mode="normal" in2="effect1_dropShadow_2864_16622" result="effect2_dropShadow_2864_16622"/>
<feBlend mode="normal" in="SourceGraphic" in2="effect2_dropShadow_2864_16622" result="shape"/>
</filter>
<radialGradient id="paint0_radial_2864_16622" cx="0" cy="0" r="1" gradientUnits="userSpaceOnUse" gradientTransform="translate(35 35) rotate(90) scale(35)">
<stop stop-color="white"/>
<stop offset="0.52" stop-color="white" stop-opacity="0.8"/>
<stop offset="1" stop-color="white" stop-opacity="0"/>
</radialGradient>
<linearGradient id="paint1_linear_2864_16622" x1="17.5821" y1="17.7877" x2="52.4191" y2="52.6249" gradientUnits="userSpaceOnUse">
<stop stop-color="#91D1F8"/>
<stop offset="1" stop-color="#0070D9"/>
</linearGradient>
<clipPath id="clip0_2864_16622">
<rect width="70" height="70" rx="35" fill="white"/>
</clipPath>
</defs>
</svg>
