<svg width="24" height="25" viewBox="0 0 24 25" fill="none" xmlns="http://www.w3.org/2000/svg">
<path fill-rule="evenodd" clip-rule="evenodd" d="M1.25001 12.5005C1.25001 6.56349 6.06301 1.75049 12 1.75049C17.937 1.75049 22.75 6.56349 22.75 12.5005C22.75 18.4375 17.937 23.2505 12 23.2505C10.144 23.2505 8.39501 22.7795 6.87001 21.9505L2.63701 22.7375C2.51739 22.7596 2.39418 22.7523 2.278 22.7163C2.16183 22.6802 2.05617 22.6164 1.97015 22.5303C1.88413 22.4443 1.82032 22.3387 1.78424 22.2225C1.74815 22.1063 1.74087 21.9831 1.76301 21.8635L2.55101 17.6305C1.69462 16.0564 1.24727 14.2925 1.25001 12.5005ZM12 7.75049C12.1989 7.75049 12.3897 7.82951 12.5303 7.97016C12.671 8.11081 12.75 8.30158 12.75 8.50049V12.5005C12.75 12.6994 12.671 12.8902 12.5303 13.0308C12.3897 13.1715 12.1989 13.2505 12 13.2505C11.8011 13.2505 11.6103 13.1715 11.4697 13.0308C11.329 12.8902 11.25 12.6994 11.25 12.5005V8.50049C11.25 8.30158 11.329 8.11081 11.4697 7.97016C11.6103 7.82951 11.8011 7.75049 12 7.75049ZM12.567 17.0015C12.6354 16.9288 12.6885 16.8431 12.7234 16.7496C12.7582 16.656 12.774 16.5565 12.7699 16.4568C12.7658 16.357 12.7418 16.2591 12.6993 16.1688C12.6568 16.0785 12.5968 15.9975 12.5226 15.9307C12.4485 15.8639 12.3618 15.8125 12.2675 15.7796C12.1733 15.7468 12.0734 15.7331 11.9738 15.7393C11.8742 15.7455 11.7768 15.7715 11.6874 15.8159C11.5979 15.8602 11.5183 15.922 11.453 15.9975L11.443 16.0085C11.3747 16.0812 11.3215 16.1669 11.2867 16.2604C11.2518 16.3539 11.236 16.4535 11.2401 16.5532C11.2443 16.6529 11.2683 16.7508 11.3107 16.8412C11.3532 16.9315 11.4132 17.0125 11.4874 17.0793C11.5615 17.1461 11.6483 17.1975 11.7425 17.2303C11.8368 17.2632 11.9366 17.2769 12.0362 17.2707C12.1359 17.2645 12.2332 17.2384 12.3227 17.1941C12.4121 17.1498 12.4918 17.088 12.557 17.0125L12.567 17.0015Z" fill="#FF4C4C"/>
</svg>
