<svg width="21" height="20" viewBox="0 0 21 20" fill="none" xmlns="http://www.w3.org/2000/svg">
<path fill-rule="evenodd" clip-rule="evenodd" d="M20.5 10C20.5 15.5228 16.0228 20 10.5 20C8.9003 20 7.38837 19.6244 6.04753 18.9565C5.69121 18.7791 5.28393 18.72 4.89939 18.8229L2.67335 19.4185C1.70701 19.677 0.82295 18.793 1.08151 17.8267L1.67712 15.6006C1.78001 15.2161 1.72094 14.8088 1.54346 14.4525C0.87562 13.1116 0.5 11.5997 0.5 10C0.5 4.47715 4.97715 0 10.5 0C16.0228 0 20.5 4.47715 20.5 10ZM6 9.1084C6 10.4768 7.31884 11.9126 8.5286 12.9417C9.3524 13.6426 9.7644 13.9931 10.5 13.9931C11.2356 13.9931 11.6476 13.6426 12.4714 12.9417C13.6812 11.9126 15 10.4768 15 9.1084C15 6.43124 12.5249 5.43172 10.5 7.4998C8.47507 5.43172 6 6.43124 6 9.1084Z" fill="#EDEEEE"/>
</svg>
