<svg width="27" height="28" viewBox="0 0 27 28" fill="none" xmlns="http://www.w3.org/2000/svg">
<path fill-rule="evenodd" clip-rule="evenodd" d="M26.8333 13.9998C26.8333 21.3636 20.8637 27.3332 13.5 27.3332C6.13619 27.3332 0.166656 21.3636 0.166656 13.9998C0.166656 6.63604 6.13619 0.666504 13.5 0.666504C20.8637 0.666504 26.8333 6.63604 26.8333 13.9998ZM9.4595 9.95937C9.85002 9.56885 10.4832 9.56885 10.8737 9.95937L13.5 12.5856L16.1261 9.9594C16.5167 9.56888 17.1499 9.56888 17.5404 9.9594C17.9309 10.3499 17.9309 10.9831 17.5404 11.3736L14.9141 13.9998L17.5404 16.626C17.9309 17.0165 17.9309 17.6497 17.5404 18.0402C17.1499 18.4308 16.5167 18.4308 16.1261 18.0402L13.5 15.4141L10.8737 18.0402C10.4832 18.4308 9.85004 18.4308 9.45952 18.0402C9.069 17.6497 9.069 17.0165 9.45952 16.6261L12.0857 13.9998L9.4595 11.3736C9.06896 10.9831 9.06896 10.3499 9.4595 9.95937Z" fill="url(#paint0_linear_285_6371)"/>
<defs>
<linearGradient id="paint0_linear_285_6371" x1="0.166656" y1="13.9998" x2="26.8333" y2="13.9998" gradientUnits="userSpaceOnUse">
<stop stop-color="#FEC0C1"/>
<stop offset="1" stop-color="#FE4549"/>
</linearGradient>
</defs>
</svg>
