<svg width="64" height="69" viewBox="0 0 64 69" fill="none" xmlns="http://www.w3.org/2000/svg">
<path d="M2.24684 27.0459C6.24921 12.1089 21.6026 3.24456 36.5397 7.24693C51.4767 11.2493 60.3411 26.6027 56.3387 41.5398C52.3363 56.4768 36.9829 65.3411 22.0458 61.3388C7.10878 57.3364 -1.75553 41.983 2.24684 27.0459Z" fill="#FFE0E0"/>
<path fill-rule="evenodd" clip-rule="evenodd" d="M48.6113 39.4691C45.7525 50.1384 34.7856 56.4701 24.1164 53.6113C13.4471 50.7524 7.11544 39.7856 9.97425 29.1164C12.8331 18.447 23.7998 12.1154 34.4692 14.9742C45.1384 17.833 51.4701 28.7998 48.6113 39.4691ZM25.0072 26.8699C25.7246 26.4557 26.642 26.7015 27.0562 27.419L29.8418 32.2436L34.6664 29.4581C35.3838 29.0439 36.3012 29.2898 36.7155 30.0072C37.1297 30.7246 36.8839 31.642 36.1665 32.0562L31.3417 34.8418L34.1273 39.6663C34.5415 40.3838 34.2957 41.3012 33.5783 41.7154C32.8608 42.1297 31.9434 41.8838 31.5291 41.1664L28.7437 36.3419L23.919 39.1272C23.2016 39.5415 22.2842 39.2957 21.87 38.5782C21.4558 37.8608 21.7016 36.9433 22.419 36.5293L27.2437 33.7437L24.4581 28.9189C24.0439 28.2015 24.2897 27.2841 25.0072 26.8699Z" fill="url(#paint0_linear_111_1155)"/>
<defs>
<linearGradient id="paint0_linear_111_1155" x1="9.97425" y1="29.1164" x2="48.6113" y2="39.4691" gradientUnits="userSpaceOnUse">
<stop stop-color="#FEC0C1"/>
<stop offset="1" stop-color="#FE4549"/>
</linearGradient>
</defs>
</svg>
