<svg width="12" height="30" viewBox="0 0 12 30" fill="none" xmlns="http://www.w3.org/2000/svg">
<path fill-rule="evenodd" clip-rule="evenodd" d="M3.90373 14.0317C3.90373 12.8689 4.84247 11.9262 6.00068 11.9262C7.15888 11.9262 8.09762 12.8689 8.09762 14.0317V16.5577C8.09762 17.7205 7.15888 18.663 6.00068 18.663C4.84247 18.663 3.90373 17.7205 3.90373 16.5577V14.0317ZM0.348091 4.69695L0.39137 4.77299L0.350352 4.7023C0.350352 4.7023 0.681244 5.79276 1.44541 7.10585C2.02516 8.10162 2.56744 8.7559 2.82082 9.03966L2.95631 9.27753V27.9803C2.95631 28.9756 3.75972 29.7824 4.75095 29.7824H7.24968C8.24074 29.7824 9.04431 28.9756 9.04431 27.9803V9.25078L9.14444 9.07598C9.3786 8.81832 9.94736 8.14816 10.5571 7.10034C11.3216 5.78741 11.6524 4.69695 11.6524 4.69695V3.21294H0.348091V4.69695ZM11.6522 1.06663C11.6522 0.597528 11.2735 0.217285 10.8063 0.217285H1.19378C0.726755 0.217285 0.3479 0.597528 0.3479 1.06663C0.3479 1.07036 0.349031 1.07376 0.349031 1.07733H0.3479V1.90997H1.13387C1.15406 1.91127 1.17327 1.91597 1.19378 1.91597H10.8063C10.8268 1.91597 10.846 1.91127 10.8662 1.90997H11.6522V1.07733H11.6511C11.6512 1.07376 11.6522 1.07036 11.6522 1.06663ZM5.78855 17.7685C6.48506 17.8859 7.14442 17.4141 7.26134 16.7147C7.37826 16.0152 6.90848 15.3531 6.21182 15.2358C5.51531 15.1185 4.85595 15.5902 4.73903 16.2897C4.62211 16.9891 5.09205 17.6511 5.78855 17.7685Z" fill="white"/>
</svg>
