<svg width="20" height="20" viewBox="0 0 20 20" fill="none" xmlns="http://www.w3.org/2000/svg">
<path d="M14.9334 8.43337C14.6584 8.36671 14.3667 8.33337 14.0667 8.33337C11.8834 8.33337 10.1084 10.1084 10.1084 12.2917C10.1084 13.0334 10.3167 13.7334 10.6834 14.3334C10.9917 14.85 11.4167 15.2917 11.9334 15.6084C12.5501 16.0167 13.2834 16.25 14.0667 16.25C15.5167 16.25 16.7751 15.475 17.4584 14.3334C17.8251 13.7334 18.0251 13.0334 18.0251 12.2917C18.0251 10.4084 16.7084 8.82504 14.9334 8.43337ZM16.0417 11.775L13.9251 13.725C13.8084 13.8334 13.6501 13.8917 13.5001 13.8917C13.3417 13.8917 13.1834 13.8334 13.0584 13.7084L12.0834 12.7334C11.8417 12.4917 11.8417 12.0917 12.0834 11.85C12.3251 11.6084 12.7251 11.6084 12.9667 11.85L13.5167 12.4L15.1917 10.8584C15.4501 10.625 15.8417 10.6417 16.0751 10.8917C16.3084 11.15 16.2917 11.5417 16.0417 11.775Z" fill="#266EF1"/>
<path d="M17.1496 3.34996V5.19996C17.1496 5.87496 16.7329 6.71663 16.3163 7.14163L16.1663 7.27496C16.0496 7.38329 15.8746 7.40829 15.7246 7.35829C15.5579 7.29996 15.3913 7.25829 15.2246 7.21663C14.8579 7.12496 14.4663 7.08329 14.0663 7.08329C11.1913 7.08329 8.85794 9.41663 8.85794 12.2916C8.85794 13.2416 9.11628 14.175 9.60794 14.975C10.0246 15.675 10.6079 16.2583 11.2413 16.65C11.4329 16.775 11.5079 17.0416 11.3413 17.1916C11.2829 17.2416 11.2246 17.2833 11.1663 17.325L9.99961 18.0833C8.91628 18.7583 7.42461 18 7.42461 16.65V12.1916C7.42461 11.6 7.09128 10.8416 6.75794 10.425L3.59961 7.05829C3.18294 6.63329 2.84961 5.87496 2.84961 5.37496V3.43329C2.84961 2.42496 3.59961 1.66663 4.50794 1.66663H15.4913C16.3996 1.66663 17.1496 2.42496 17.1496 3.34996Z" fill="#266EF1"/>
</svg>
