<svg width="27" height="24" viewBox="0 0 27 24" fill="none" xmlns="http://www.w3.org/2000/svg">
<path d="M8.30838 20.3291C4.56427 17.4444 0.166687 14.0563 0.166687 8.1828C0.166687 1.69888 7.50023 -2.89938 13.5 3.33418L16.1667 5.99904C16.5572 6.3895 17.1904 6.38938 17.581 5.99878C17.9714 5.60819 17.9712 4.97503 17.5807 4.58458L15.0047 2.0095C20.658 -2.12921 26.8334 2.23287 26.8334 8.1828C26.8334 14.0563 22.4358 17.4444 18.6916 20.3291C18.3026 20.6289 17.9204 20.9233 17.5511 21.2145C16.1667 22.3059 14.8334 23.3333 13.5 23.3333C12.1667 23.3333 10.8334 22.3059 9.44899 21.2145C9.07963 20.9233 8.69754 20.6289 8.30838 20.3291Z" fill="url(#paint0_linear_111_1127)"/>
<defs>
<linearGradient id="paint0_linear_111_1127" x1="13.5" y1="0.379883" x2="13.5" y2="23.3333" gradientUnits="userSpaceOnUse">
<stop stop-color="#A9CFBE"/>
<stop offset="1" stop-color="#457E5F"/>
</linearGradient>
</defs>
</svg>
