<svg width="56" height="56" viewBox="0 0 56 56" fill="none" xmlns="http://www.w3.org/2000/svg">
<path d="M0 28C0 12.536 12.536 0 28 0C43.464 0 56 12.536 56 28C56 43.464 43.464 56 28 56C12.536 56 0 43.464 0 28Z" fill="#D1E7DC"/>
<path d="M20.2125 40.4936C14.5964 36.1666 8 31.0844 8 22.2742C8 12.5483 19.0003 5.65093 28 15.0013L32 18.9986C32.5858 19.5842 33.5356 19.5841 34.1214 18.9982C34.707 18.4123 34.7068 17.4625 34.121 16.8769L30.257 13.0142C38.737 6.80618 48 13.3493 48 22.2742C48 31.0844 41.4036 36.1666 35.7874 40.4936C35.2038 40.9434 34.6306 41.385 34.0766 41.8218C32 43.4588 30 45 28 45C26 45 24 43.4588 21.9235 41.8218C21.3694 41.385 20.7963 40.9434 20.2125 40.4936Z" fill="url(#paint0_linear_111_1229)"/>
<defs>
<linearGradient id="paint0_linear_111_1229" x1="28" y1="10.5698" x2="28" y2="45" gradientUnits="userSpaceOnUse">
<stop stop-color="#A9CFBE"/>
<stop offset="1" stop-color="#457E5F"/>
</linearGradient>
</defs>
</svg>
