<svg width="16" height="16" viewBox="0 0 16 16" fill="none" xmlns="http://www.w3.org/2000/svg">
<path fill-rule="evenodd" clip-rule="evenodd" d="M8.00008 0.666504C3.94999 0.666504 0.666748 3.94975 0.666748 7.99984C0.666748 12.0499 3.94999 15.3332 8.00008 15.3332C12.0502 15.3332 15.3334 12.0499 15.3334 7.99984C15.3334 3.94975 12.0502 0.666504 8.00008 0.666504ZM8.00008 4.6665C7.63189 4.6665 7.33341 4.96498 7.33341 5.33317C7.33341 5.70136 7.63189 5.99984 8.00008 5.99984H8.00675C8.37494 5.99984 8.67341 5.70136 8.67341 5.33317C8.67341 4.96498 8.37494 4.6665 8.00675 4.6665H8.00008ZM8.66675 7.99984C8.66675 7.63165 8.36827 7.33317 8.00008 7.33317C7.63189 7.33317 7.33341 7.63165 7.33341 7.99984V10.6665C7.33341 11.0347 7.63189 11.3332 8.00008 11.3332C8.36827 11.3332 8.66675 11.0347 8.66675 10.6665V7.99984Z" fill="#DE372D"/>
</svg>
