<svg width="27" height="28" viewBox="0 0 27 28" fill="none" xmlns="http://www.w3.org/2000/svg">
<path d="M9.70424 5.21101C11.3931 2.18134 12.2375 0.666504 13.5 0.666504C14.7626 0.666504 15.607 2.18133 17.2958 5.211L17.7327 5.99481C18.2127 6.85574 18.4526 7.28622 18.8268 7.57025C19.201 7.85428 19.6668 7.9597 20.5988 8.17057L21.4474 8.36254C24.7268 9.10458 26.3667 9.4756 26.7568 10.7301C27.147 11.9846 26.0291 13.292 23.7932 15.9064L23.2148 16.5828C22.5795 17.3257 22.2618 17.6972 22.1188 18.1568C21.976 18.6164 22.024 19.112 22.12 20.1033L22.2075 21.0057C22.5455 24.494 22.7146 26.2381 21.6932 27.0134C20.6718 27.7888 19.1364 27.0818 16.0658 25.6681L15.2714 25.3022C14.3988 24.9005 13.9626 24.6996 13.5 24.6996C13.0375 24.6996 12.6012 24.9005 11.7287 25.3022L10.9343 25.6681C7.8636 27.0818 6.32826 27.7888 5.30689 27.0134C4.28552 26.2381 4.45453 24.494 4.79256 21.0057L4.88 20.1033C4.97606 19.112 5.02409 18.6164 4.88117 18.1568C4.73826 17.6972 4.4206 17.3257 3.78525 16.5828L3.20682 15.9064C0.971023 13.292 -0.146884 11.9846 0.24325 10.7301C0.633383 9.4756 2.27317 9.10458 5.55274 8.36254L6.40121 8.17057C7.33316 7.9597 7.79913 7.85428 8.17328 7.57025C8.54742 7.28622 8.7874 6.85576 9.26732 5.99481L9.70424 5.21101Z" fill="url(#paint0_linear_111_1123)"/>
<defs>
<linearGradient id="paint0_linear_111_1123" x1="13.5" y1="0.666504" x2="13.5" y2="27.3331" gradientUnits="userSpaceOnUse">
<stop stop-color="#FFF1A9"/>
<stop offset="1" stop-color="#FFD239"/>
</linearGradient>
</defs>
</svg>
