<svg width="32" height="32" viewBox="0 0 32 32" fill="none" xmlns="http://www.w3.org/2000/svg">
<path d="M27.0397 29.6816C26.6723 30.105 26.2184 30.4445 25.7086 30.6773C25.1988 30.9102 24.6449 31.0309 24.0845 31.0314H7.91606C7.35593 31.0306 6.80247 30.9099 6.29292 30.6773C5.78338 30.4447 5.32958 30.1056 4.96207 29.6829C4.59456 29.2602 4.32188 28.7637 4.16237 28.2268C4.00286 27.6898 3.96023 27.1249 4.03735 26.5702L4.57724 22.8335L6.06905 12.3624C6.20372 11.4328 6.66817 10.5827 7.37764 9.96711C8.0871 9.35155 8.99427 9.01163 9.93355 9.0094H22.067C22.615 9.0142 23.1563 9.13021 23.6582 9.35038C24.2603 9.62008 24.7845 10.0376 25.1819 10.5643C25.5794 11.0909 25.8372 11.7094 25.9315 12.3624L27.9632 26.5702C28.0396 27.1246 27.9968 27.6891 27.8375 28.2257C27.6782 28.7622 27.4062 29.2586 27.0397 29.6816Z" fill="#41B467"/>
<path d="M23.6581 9.35038C22.4523 13.2653 20.0228 16.6903 16.7265 19.1223C13.4301 21.5543 9.44075 22.865 5.34437 22.8619C5.0883 22.8667 4.83217 22.8572 4.57715 22.8335L6.06896 12.3624C6.20363 11.4328 6.66808 10.5827 7.37755 9.96711C8.08701 9.35155 8.99418 9.01163 9.93346 9.0094H22.0669C22.6149 9.0142 23.1562 9.13021 23.6581 9.35038Z" fill="#41B467"/>
<path d="M20.9729 11.1405H11.0275C10.7449 11.1405 10.4739 11.0283 10.274 10.8284C10.0742 10.6286 9.96191 10.3576 9.96191 10.075V6.52303C9.96191 4.92157 10.5981 3.38571 11.7305 2.25331C12.8629 1.12092 14.3987 0.484741 16.0002 0.484741C17.6017 0.484741 19.1375 1.12092 20.2699 2.25331C21.4023 3.38571 22.0385 4.92157 22.0385 6.52303V10.075C22.0385 10.3576 21.9262 10.6286 21.7264 10.8284C21.5266 11.0283 21.2555 11.1405 20.9729 11.1405ZM12.0931 9.00938H19.9073V6.52303C19.9073 5.48679 19.4957 4.493 18.763 3.76027C18.0302 3.02754 17.0364 2.6159 16.0002 2.6159C14.964 2.6159 13.9702 3.02754 13.2374 3.76027C12.5047 4.493 12.0931 5.48679 12.0931 6.52303V9.00938Z" fill="#41B467"/>
<path d="M16.0008 22.5066C14.5883 22.5048 13.2342 21.9428 12.2354 20.9441C11.2367 19.9453 10.6747 18.5912 10.6729 17.1787V15.758C10.6729 15.4754 10.7851 15.2043 10.985 15.0045C11.1848 14.8046 11.4558 14.6924 11.7384 14.6924C12.021 14.6924 12.2921 14.8046 12.4919 15.0045C12.6917 15.2043 12.804 15.4754 12.804 15.758V17.1787C12.804 18.0266 13.1408 18.8397 13.7403 19.4392C14.3398 20.0387 15.1529 20.3755 16.0008 20.3755C16.8486 20.3755 17.6617 20.0387 18.2612 19.4392C18.8607 18.8397 19.1975 18.0266 19.1975 17.1787V15.758C19.1975 15.4754 19.3098 15.2043 19.5096 15.0045C19.7094 14.8046 19.9805 14.6924 20.2631 14.6924C20.5457 14.6924 20.8167 14.8046 21.0165 15.0045C21.2164 15.2043 21.3287 15.4754 21.3287 15.758V17.1787C21.3268 18.5912 20.7648 19.9453 19.7661 20.9441C18.7673 21.9428 17.4132 22.5048 16.0008 22.5066Z" fill="#F5FAFF"/>
</svg>
