<svg width="14" height="14" viewBox="0 0 14 14" fill="none" xmlns="http://www.w3.org/2000/svg">
<path opacity="0.2" d="M8.93209 11.4316C8.30276 12.061 7.50094 12.4896 6.62802 12.6633C5.75509 12.8369 4.85028 12.7478 4.02799 12.4072C3.20571 12.0667 2.50289 11.4899 2.00841 10.7499C1.51393 10.0098 1.25 9.13979 1.25 8.24976C1.25 7.35973 1.51393 6.48969 2.00841 5.74966C2.50289 5.00963 3.20571 4.43286 4.02799 4.09227C4.85028 3.75169 5.75509 3.66259 6.62802 3.83625C7.50094 4.0099 8.30276 4.43852 8.93209 5.06788C9.77594 5.91179 10.25 7.05634 10.25 8.24976C10.25 9.44318 9.77594 10.5877 8.93209 11.4316Z" fill="black"/>
<path d="M12.7506 0.749756H9.75064C9.61803 0.749756 9.49085 0.802434 9.39708 0.896203C9.30332 0.989971 9.25064 1.11715 9.25064 1.24976C9.25064 1.38236 9.30332 1.50954 9.39708 1.60331C9.49085 1.69708 9.61803 1.74976 9.75064 1.74976H11.5438L8.91439 4.37913C7.92121 3.5673 6.654 3.16824 5.37485 3.26449C4.0957 3.36073 2.90248 3.94492 2.04196 4.89623C1.18144 5.84754 0.719459 7.09319 0.751568 8.37555C0.783677 9.65791 1.30742 10.8789 2.21447 11.7859C3.12152 12.693 4.34249 13.2167 5.62485 13.2488C6.90721 13.2809 8.15286 12.819 9.10417 11.9584C10.0555 11.0979 10.6397 9.90469 10.7359 8.62554C10.8322 7.3464 10.4331 6.07919 9.62126 5.08601L12.2506 2.45726V4.24976C12.2506 4.38236 12.3033 4.50954 12.3971 4.60331C12.4909 4.69708 12.618 4.74976 12.7506 4.74976C12.8832 4.74976 13.0104 4.69708 13.1042 4.60331C13.198 4.50954 13.2506 4.38236 13.2506 4.24976V1.24976C13.2506 1.11715 13.198 0.989971 13.1042 0.896203C13.0104 0.802434 12.8832 0.749756 12.7506 0.749756ZM8.57814 11.0804C8.01866 11.6396 7.30592 12.0204 6.53005 12.1746C5.75417 12.3288 4.95 12.2495 4.2192 11.9467C3.4884 11.6439 2.86379 11.1312 2.42434 10.4734C1.9849 9.81565 1.75035 9.04237 1.75035 8.25132C1.75035 7.46027 1.9849 6.68698 2.42434 6.02922C2.86379 5.37147 3.4884 4.85878 4.2192 4.55597C4.95 4.25317 5.75417 4.17385 6.53005 4.32805C7.30592 4.48224 8.01866 4.86303 8.57814 5.42226C9.32714 6.17326 9.74776 7.19065 9.74776 8.25132C9.74776 9.31199 9.32714 10.3294 8.57814 11.0804Z" fill="black"/>
</svg>
