<svg width="48" height="49" viewBox="0 0 48 49" fill="none" xmlns="http://www.w3.org/2000/svg">
<path d="M24 4.5C12.98 4.5 4 13.48 4 24.5C4 35.52 12.98 44.5 24 44.5C35.02 44.5 44 35.52 44 24.5C44 13.48 35.02 4.5 24 4.5ZM33.56 19.9L22.22 31.24C21.94 31.52 21.56 31.68 21.16 31.68C20.76 31.68 20.38 31.52 20.1 31.24L14.44 25.58C13.86 25 13.86 24.04 14.44 23.46C15.02 22.88 15.98 22.88 16.56 23.46L21.16 28.06L31.44 17.78C32.02 17.2 32.98 17.2 33.56 17.78C34.14 18.36 34.14 19.3 33.56 19.9Z" fill="#0E8345"/>
</svg>
