<svg width="21" height="18" viewBox="0 0 21 18" fill="none" xmlns="http://www.w3.org/2000/svg">
<path d="M6.60627 15.2466C3.79819 13.0831 0.5 10.542 0.5 6.13686C0.5 1.27392 6.00016 -2.17478 10.5 2.50039L12.5 4.49904C12.7929 4.79188 13.2678 4.79179 13.5607 4.49884C13.8535 4.2059 13.8534 3.73103 13.5605 3.43819L11.6285 1.50688C15.8685 -1.59715 20.5 1.67441 20.5 6.13686C20.5 10.542 17.2018 13.0831 14.3937 15.2466C14.1019 15.4715 13.8153 15.6923 13.5383 15.9107C12.5 16.7292 11.5 17.4998 10.5 17.4998C9.5 17.4998 8.5 16.7292 7.46173 15.9107C7.18471 15.6923 6.89814 15.4715 6.60627 15.2466Z" fill="#FF7575"/>
</svg>
