<svg width="12" height="12" viewBox="0 0 12 12" fill="none" xmlns="http://www.w3.org/2000/svg">
<g clip-path="url(#clip0_10348_16739)">
<path d="M6.44835 1.52872C6.36412 1.35805 6.1903 1.25 5.99998 1.25C5.80966 1.25 5.63584 1.35805 5.55161 1.52872L4.28704 4.09102L1.45937 4.50191C1.27102 4.52928 1.11455 4.6612 1.05574 4.8422C0.996924 5.02321 1.04597 5.22191 1.18226 5.35475L3.22838 7.34923L2.74536 10.1655C2.71318 10.3531 2.7903 10.5426 2.94427 10.6545C3.09824 10.7664 3.30237 10.7811 3.47083 10.6926L5.99998 9.36292L8.52913 10.6926C8.69759 10.7811 8.90172 10.7664 9.05569 10.6545C9.20966 10.5426 9.28677 10.3531 9.2546 10.1655L8.77158 7.34923L10.8177 5.35475C10.954 5.22191 11.003 5.02321 10.9442 4.8422C10.8854 4.6612 10.7289 4.52928 10.5406 4.50191L7.71292 4.09102L6.44835 1.52872Z" fill="#FDB022"/>
</g>
<defs>
<clipPath id="clip0_10348_16739">
<rect width="10" height="10" fill="white" transform="translate(1 1)"/>
</clipPath>
</defs>
</svg>
