<svg width="56" height="56" viewBox="0 0 56 56" fill="none" xmlns="http://www.w3.org/2000/svg">
<path d="M0 28C0 12.536 12.536 0 28 0C43.464 0 56 12.536 56 28C56 43.464 43.464 56 28 56C12.536 56 0 43.464 0 28Z" fill="#FFF9D6"/>
<path d="M22.3063 14.8168C24.8396 10.2723 26.1062 8 28 8C29.8938 8 31.1604 10.2722 33.6936 14.8167L34.349 15.9925C35.069 17.2839 35.4288 17.9296 35.9902 18.3556C36.5514 18.7817 37.2502 18.9398 38.6482 19.2561L39.921 19.5441C44.8402 20.6571 47.3 21.2136 47.8852 23.0955C48.4704 24.9772 46.7936 26.9382 43.4398 30.8598L42.5722 31.8744C41.6192 32.9888 41.1426 33.546 40.9282 34.2354C40.714 34.9248 40.786 35.6682 40.93 37.1552L41.0612 38.5088C41.5682 43.7412 41.8218 46.3574 40.2898 47.5204C38.7576 48.6834 36.4546 47.623 31.8486 45.5024L30.657 44.9536C29.3482 44.351 28.6938 44.0496 28 44.0496C27.3062 44.0496 26.6518 44.351 25.343 44.9536L24.1514 45.5024C19.5454 47.623 17.2424 48.6834 15.7103 47.5204C14.1782 46.3574 14.4318 43.7412 14.9388 38.5088L15.07 37.1552C15.2141 35.6682 15.2861 34.9248 15.0717 34.2354C14.8574 33.546 14.3809 32.9888 13.4278 31.8744L12.5602 30.8598C9.2065 26.9382 7.52964 24.9772 8.11484 23.0955C8.70004 21.2136 11.1597 20.6571 16.0791 19.5441L17.3518 19.2561C18.7497 18.9398 19.4487 18.7817 20.0099 18.3556C20.5711 17.9296 20.9311 17.2839 21.6509 15.9925L22.3063 14.8168Z" fill="url(#paint0_linear_111_1369)"/>
<defs>
<linearGradient id="paint0_linear_111_1369" x1="28" y1="8" x2="28" y2="47.9999" gradientUnits="userSpaceOnUse">
<stop stop-color="#FFF1A9"/>
<stop offset="1" stop-color="#FFD239"/>
</linearGradient>
</defs>
</svg>
