<svg width="25" height="24" viewBox="0 0 25 24" fill="none" xmlns="http://www.w3.org/2000/svg">
<path d="M16.625 4.25C16.625 5.49 15.615 6.5 14.375 6.5H10.875C10.255 6.5 9.695 6.25 9.285 5.84C8.875 5.43 8.625 4.87 8.625 4.25C8.625 3.01 9.635 2 10.875 2H14.375C14.995 2 15.555 2.25 15.965 2.66C16.375 3.07 16.625 3.63 16.625 4.25Z" fill="#266EF1"/>
<path d="M19.455 5.03002C19.225 4.84002 18.965 4.69002 18.685 4.58002C18.395 4.47002 18.105 4.70002 18.045 5.00002C17.705 6.71002 16.195 8.00002 14.375 8.00002H10.875C9.875 8.00002 8.935 7.61002 8.225 6.90002C7.705 6.38002 7.345 5.72002 7.205 5.01002C7.145 4.71002 6.845 4.47002 6.555 4.59002C5.395 5.06002 4.625 6.12002 4.625 8.25002V18C4.625 21 6.415 22 8.625 22H16.625C18.835 22 20.625 21 20.625 18V8.25002C20.625 6.62002 20.175 5.62002 19.455 5.03002ZM8.625 12.25H12.625C13.035 12.25 13.375 12.59 13.375 13C13.375 13.41 13.035 13.75 12.625 13.75H8.625C8.215 13.75 7.875 13.41 7.875 13C7.875 12.59 8.215 12.25 8.625 12.25ZM16.625 17.75H8.625C8.215 17.75 7.875 17.41 7.875 17C7.875 16.59 8.215 16.25 8.625 16.25H16.625C17.035 16.25 17.375 16.59 17.375 17C17.375 17.41 17.035 17.75 16.625 17.75Z" fill="#266EF1"/>
</svg>
