<svg width="25" height="24" viewBox="0 0 25 24" fill="none" xmlns="http://www.w3.org/2000/svg">
<path d="M12.3949 20.53C10.0649 20.53 7.73487 20.16 5.52487 19.42C4.68487 19.13 4.04487 18.54 3.76487 17.77C3.47487 17 3.57487 16.15 4.03487 15.39L5.18487 13.48C5.42487 13.08 5.64487 12.28 5.64487 11.81V8.91998C5.64487 5.19998 8.67487 2.16998 12.3949 2.16998C16.1149 2.16998 19.1449 5.19998 19.1449 8.91998V11.81C19.1449 12.27 19.3649 13.08 19.6049 13.49L20.7449 15.39C21.1749 16.11 21.2549 16.98 20.9649 17.77C20.6749 18.56 20.0449 19.16 19.2549 19.42C17.0549 20.16 14.7249 20.53 12.3949 20.53ZM12.3949 3.66998C9.50487 3.66998 7.14487 6.01998 7.14487 8.91998V11.81C7.14487 12.54 6.84487 13.62 6.47487 14.25L5.32487 16.16C5.10487 16.53 5.04487 16.92 5.17487 17.25C5.29487 17.59 5.59487 17.85 6.00487 17.99C10.1849 19.39 14.6149 19.39 18.7949 17.99C19.1549 17.87 19.4349 17.6 19.5649 17.24C19.6949 16.88 19.6649 16.49 19.4649 16.16L18.3149 14.25C17.9349 13.6 17.6449 12.53 17.6449 11.8V8.91998C17.6449 6.01998 15.2949 3.66998 12.3949 3.66998Z" fill="#5E5E5E"/>
<path d="M14.2546 3.93999C14.1846 3.93999 14.1146 3.92999 14.0446 3.90999C13.7546 3.82999 13.4746 3.76999 13.2046 3.72999C12.3546 3.61999 11.5346 3.67999 10.7646 3.90999C10.4846 3.99999 10.1846 3.90999 9.99463 3.69999C9.80463 3.48999 9.74463 3.18999 9.85463 2.91999C10.2646 1.86999 11.2646 1.17999 12.4046 1.17999C13.5446 1.17999 14.5446 1.85999 14.9546 2.91999C15.0546 3.18999 15.0046 3.48999 14.8146 3.69999C14.6646 3.85999 14.4546 3.93999 14.2546 3.93999Z" fill="#5E5E5E"/>
<path d="M12.3945 22.81C11.4045 22.81 10.4445 22.41 9.74453 21.71C9.04453 21.01 8.64453 20.05 8.64453 19.06H10.1445C10.1445 19.65 10.3845 20.23 10.8045 20.65C11.2245 21.07 11.8045 21.31 12.3945 21.31C13.6345 21.31 14.6445 20.3 14.6445 19.06H16.1445C16.1445 21.13 14.4645 22.81 12.3945 22.81Z" fill="#5E5E5E"/>
</svg>
