<svg width="25" height="24" viewBox="0 0 25 24" fill="none" xmlns="http://www.w3.org/2000/svg">
<path d="M20.9152 6.82006L15.1552 2.79006C13.5852 1.69006 11.1752 1.75006 9.66523 2.92006L4.65523 6.83006C3.65523 7.61006 2.86523 9.21006 2.86523 10.4701V17.3701C2.86523 19.9201 4.93523 22.0001 7.48523 22.0001H18.2652C20.8152 22.0001 22.8852 19.9301 22.8852 17.3801V10.6001C22.8852 9.25006 22.0152 7.59006 20.9152 6.82006ZM13.6252 18.0001C13.6252 18.4101 13.2852 18.7501 12.8752 18.7501C12.4652 18.7501 12.1252 18.4101 12.1252 18.0001V15.0001C12.1252 14.5901 12.4652 14.2501 12.8752 14.2501C13.2852 14.2501 13.6252 14.5901 13.6252 15.0001V18.0001Z" fill="#1187D0"/>
</svg>
