<svg width="25" height="24" viewBox="0 0 25 24" fill="none" xmlns="http://www.w3.org/2000/svg">
<path d="M12.2455 13.53C12.2255 13.53 12.1955 13.53 12.1755 13.53C12.1455 13.53 12.1055 13.53 12.0755 13.53C9.80547 13.46 8.10547 11.69 8.10547 9.50998C8.10547 7.28998 9.91547 5.47998 12.1355 5.47998C14.3555 5.47998 16.1655 7.28998 16.1655 9.50998C16.1555 11.7 14.4455 13.46 12.2755 13.53C12.2555 13.53 12.2555 13.53 12.2455 13.53ZM12.1255 6.96998C10.7255 6.96998 9.59547 8.10998 9.59547 9.49998C9.59547 10.87 10.6655 11.98 12.0255 12.03C12.0555 12.02 12.1555 12.02 12.2555 12.03C13.5955 11.96 14.6455 10.86 14.6555 9.49998C14.6555 8.10998 13.5255 6.96998 12.1255 6.96998Z" fill="#5E5E5E"/>
<path d="M12.1248 22.75C9.43484 22.75 6.86484 21.75 4.87484 19.93C4.69484 19.77 4.61484 19.53 4.63484 19.3C4.76484 18.11 5.50484 17 6.73484 16.18C9.71484 14.2 14.5448 14.2 17.5148 16.18C18.7448 17.01 19.4848 18.11 19.6148 19.3C19.6448 19.54 19.5548 19.77 19.3748 19.93C17.3848 21.75 14.8148 22.75 12.1248 22.75ZM6.20484 19.1C7.86484 20.49 9.95484 21.25 12.1248 21.25C14.2948 21.25 16.3848 20.49 18.0448 19.1C17.8648 18.49 17.3848 17.9 16.6748 17.42C14.2148 15.78 10.0448 15.78 7.56484 17.42C6.85484 17.9 6.38484 18.49 6.20484 19.1Z" fill="#5E5E5E"/>
<path d="M12.125 22.75C6.195 22.75 1.375 17.93 1.375 12C1.375 6.07 6.195 1.25 12.125 1.25C18.055 1.25 22.875 6.07 22.875 12C22.875 17.93 18.055 22.75 12.125 22.75ZM12.125 2.75C7.025 2.75 2.875 6.9 2.875 12C2.875 17.1 7.025 21.25 12.125 21.25C17.225 21.25 21.375 17.1 21.375 12C21.375 6.9 17.225 2.75 12.125 2.75Z" fill="#5E5E5E"/>
</svg>
