<svg width="25" height="24" viewBox="0 0 25 24" fill="none" xmlns="http://www.w3.org/2000/svg">
<path d="M19.7149 14.49L18.7149 12.83C18.5049 12.46 18.3149 11.76 18.3149 11.35V8.82C18.3149 6.47 16.9349 4.44 14.9449 3.49C14.4249 2.57 13.4649 2 12.3649 2C11.2749 2 10.2949 2.59 9.77494 3.52C7.82494 4.49 6.47494 6.5 6.47494 8.82V11.35C6.47494 11.76 6.28494 12.46 6.07494 12.82L5.06494 14.49C4.66494 15.16 4.57494 15.9 4.82494 16.58C5.06494 17.25 5.63494 17.77 6.37494 18.02C8.31494 18.68 10.3549 19 12.3949 19C14.4349 19 16.4749 18.68 18.4149 18.03C19.1149 17.8 19.6549 17.27 19.9149 16.58C20.1749 15.89 20.1049 15.13 19.7149 14.49Z" fill="#266EF1"/>
<path d="M15.2047 20.01C14.7847 21.17 13.6747 22 12.3747 22C11.5847 22 10.8047 21.68 10.2547 21.11C9.93469 20.81 9.69469 20.41 9.55469 20C9.68469 20.02 9.81469 20.03 9.95469 20.05C10.1847 20.08 10.4247 20.11 10.6647 20.13C11.2347 20.18 11.8147 20.21 12.3947 20.21C12.9647 20.21 13.5347 20.18 14.0947 20.13C14.3047 20.11 14.5147 20.1 14.7147 20.07C14.8747 20.05 15.0347 20.03 15.2047 20.01Z" fill="#266EF1"/>
</svg>
