<svg width="25" height="24" viewBox="0 0 25 24" fill="none" xmlns="http://www.w3.org/2000/svg">
<path d="M20.625 8.25V18C20.625 21 18.835 22 16.625 22H8.625C6.415 22 4.625 21 4.625 18V8.25C4.625 5 6.415 4.25 8.625 4.25C8.625 4.87 8.87497 5.43 9.28497 5.84C9.69497 6.25 10.255 6.5 10.875 6.5H14.375C15.615 6.5 16.625 5.49 16.625 4.25C18.835 4.25 20.625 5 20.625 8.25Z" stroke="#5E5E5E" stroke-width="1.5" stroke-linecap="round" stroke-linejoin="round"/>
<path d="M16.625 4.25C16.625 5.49 15.615 6.5 14.375 6.5H10.875C10.255 6.5 9.69497 6.25 9.28497 5.84C8.87497 5.43 8.625 4.87 8.625 4.25C8.625 3.01 9.635 2 10.875 2H14.375C14.995 2 15.555 2.25 15.965 2.66C16.375 3.07 16.625 3.63 16.625 4.25Z" stroke="#5E5E5E" stroke-width="1.5" stroke-linecap="round" stroke-linejoin="round"/>
<path d="M8.625 13H12.625" stroke="#5E5E5E" stroke-width="1.5" stroke-linecap="round" stroke-linejoin="round"/>
<path d="M8.625 17H16.625" stroke="#5E5E5E" stroke-width="1.5" stroke-linecap="round" stroke-linejoin="round"/>
</svg>
