<svg width="48" height="49" viewBox="0 0 48 49" fill="none" xmlns="http://www.w3.org/2000/svg">
<path d="M24 4.5C12.98 4.5 4 13.48 4 24.5C4 35.52 12.98 44.5 24 44.5C35.02 44.5 44 35.52 44 24.5C44 13.48 35.02 4.5 24 4.5ZM32.7 31.64C32.42 32.12 31.92 32.38 31.4 32.38C31.14 32.38 30.88 32.32 30.64 32.16L24.44 28.46C22.9 27.54 21.76 25.52 21.76 23.74V15.54C21.76 14.72 22.44 14.04 23.26 14.04C24.08 14.04 24.76 14.72 24.76 15.54V23.74C24.76 24.46 25.36 25.52 25.98 25.88L32.18 29.58C32.9 30 33.14 30.92 32.7 31.64Z" fill="#F6BC2F"/>
</svg>
