<svg width="10" height="16" viewBox="0 0 10 16" fill="none" xmlns="http://www.w3.org/2000/svg">
<path opacity="0.2" d="M9.5 5.75C9.5 6.64002 9.23608 7.51004 8.74162 8.25007C8.24715 8.99009 7.54434 9.56686 6.72208 9.90746C5.89981 10.2481 4.99501 10.3372 4.1221 10.1635C3.24918 9.9899 2.44736 9.56132 1.81802 8.93198C1.18868 8.30264 0.760102 7.50082 0.586468 6.62791C0.412835 5.75499 0.50195 4.85019 0.842544 4.02792C1.18314 3.20566 1.75991 2.50285 2.49994 2.00839C3.23996 1.51392 4.10999 1.25 5 1.25C6.19348 1.25 7.33807 1.72411 8.18198 2.56802C9.0259 3.41193 9.5 4.55653 9.5 5.75Z" fill="black"/>
<path d="M10 5.74994C9.99999 4.78235 9.71923 3.83556 9.19177 3.02438C8.66432 2.2132 7.91283 1.57248 7.02844 1.17994C6.14406 0.787407 5.16477 0.659907 4.20936 0.81291C3.25395 0.965912 2.36345 1.39284 1.64588 2.04192C0.928298 2.69101 0.414468 3.53435 0.166703 4.46968C-0.0810625 5.405 -0.0521182 6.39213 0.250025 7.31133C0.552169 8.23053 1.11453 9.04232 1.86891 9.64824C2.62328 10.2542 3.53726 10.6282 4.5 10.7249V12.2499H2.5C2.36739 12.2499 2.24022 12.3026 2.14645 12.3964C2.05268 12.4902 2 12.6173 2 12.7499C2 12.8825 2.05268 13.0097 2.14645 13.1035C2.24022 13.1973 2.36739 13.2499 2.5 13.2499H4.5V14.7499C4.5 14.8825 4.55268 15.0097 4.64645 15.1035C4.74021 15.1973 4.86739 15.2499 5 15.2499C5.13261 15.2499 5.25979 15.1973 5.35355 15.1035C5.44732 15.0097 5.5 14.8825 5.5 14.7499V13.2499H7.5C7.63261 13.2499 7.75979 13.1973 7.85355 13.1035C7.94732 13.0097 8 12.8825 8 12.7499C8 12.6173 7.94732 12.4902 7.85355 12.3964C7.75979 12.3026 7.63261 12.2499 7.5 12.2499H5.5V10.7249C6.73272 10.5995 7.87515 10.0214 8.70635 9.10248C9.53755 8.18354 9.99848 6.98903 10 5.74994ZM1 5.74994C1 4.95881 1.2346 4.18546 1.67412 3.52766C2.11365 2.86986 2.73836 2.35717 3.46927 2.05442C4.20017 1.75167 5.00444 1.67246 5.78036 1.8268C6.55629 1.98114 7.26902 2.3621 7.82843 2.92151C8.38784 3.48092 8.7688 4.19365 8.92314 4.96958C9.07748 5.7455 8.99827 6.54977 8.69552 7.28067C8.39277 8.01158 7.88008 8.63629 7.22228 9.07582C6.56448 9.51534 5.79113 9.74994 5 9.74994C3.93949 9.74878 2.92275 9.32698 2.17285 8.57709C1.42296 7.82719 1.00116 6.81045 1 5.74994Z" fill="black"/>
</svg>
